<svg width="24" height="24" viewBox="0 0 24 24" fill="none" xmlns="http://www.w3.org/2000/svg">
<path fill-rule="evenodd" clip-rule="evenodd" d="M4.79169 6.25C4.79169 6.43878 4.75451 6.6257 4.68226 6.80011C4.61002 6.97451 4.50414 7.13298 4.37065 7.26647C4.23717 7.39995 4.0787 7.50584 3.90429 7.57808C3.72989 7.65032 3.54296 7.6875 3.35419 7.6875C3.16541 7.6875 2.97849 7.65032 2.80408 7.57808C2.62967 7.50584 2.47121 7.39995 2.33772 7.26647C2.20424 7.13298 2.09835 6.97451 2.02611 6.80011C1.95387 6.6257 1.91669 6.43878 1.91669 6.25C1.91669 5.86875 2.06814 5.50312 2.33772 5.23353C2.6073 4.96395 2.97294 4.8125 3.35419 4.8125C3.73544 4.8125 4.10107 4.96395 4.37065 5.23353C4.64024 5.50312 4.79169 5.86875 4.79169 6.25ZM8.62502 5.29167C8.37085 5.29167 8.1271 5.39263 7.94738 5.57236C7.76765 5.75208 7.66669 5.99583 7.66669 6.25C7.66669 6.50417 7.76765 6.74792 7.94738 6.92764C8.1271 7.10737 8.37085 7.20833 8.62502 7.20833H20.125C20.3792 7.20833 20.6229 7.10737 20.8027 6.92764C20.9824 6.74792 21.0834 6.50417 21.0834 6.25C21.0834 5.99583 20.9824 5.75208 20.8027 5.57236C20.6229 5.39263 20.3792 5.29167 20.125 5.29167H8.62502ZM8.62502 11.0417C8.37085 11.0417 8.1271 11.1426 7.94738 11.3224C7.76765 11.5021 7.66669 11.7458 7.66669 12C7.66669 12.2542 7.76765 12.4979 7.94738 12.6776C8.1271 12.8574 8.37085 12.9583 8.62502 12.9583H20.125C20.3792 12.9583 20.6229 12.8574 20.8027 12.6776C20.9824 12.4979 21.0834 12.2542 21.0834 12C21.0834 11.7458 20.9824 11.5021 20.8027 11.3224C20.6229 11.1426 20.3792 11.0417 20.125 11.0417H8.62502ZM7.66669 17.75C7.66669 17.4958 7.76765 17.2521 7.94738 17.0724C8.1271 16.8926 8.37085 16.7917 8.62502 16.7917H14.375C14.6292 16.7917 14.8729 16.8926 15.0527 17.0724C15.2324 17.2521 15.3334 17.4958 15.3334 17.75C15.3334 18.0042 15.2324 18.2479 15.0527 18.4276C14.8729 18.6074 14.6292 18.7083 14.375 18.7083H8.62502C8.37085 18.7083 8.1271 18.6074 7.94738 18.4276C7.76765 18.2479 7.66669 18.0042 7.66669 17.75ZM3.35419 13.4375C3.73544 13.4375 4.10107 13.286 4.37065 13.0165C4.64024 12.7469 4.79169 12.3812 4.79169 12C4.79169 11.6188 4.64024 11.2531 4.37065 10.9835C4.10107 10.714 3.73544 10.5625 3.35419 10.5625C2.97294 10.5625 2.6073 10.714 2.33772 10.9835C2.06814 11.2531 1.91669 11.6188 1.91669 12C1.91669 12.3812 2.06814 12.7469 2.33772 13.0165C2.6073 13.286 2.97294 13.4375 3.35419 13.4375ZM4.79169 17.75C4.79169 17.9388 4.75451 18.1257 4.68226 18.3001C4.61002 18.4745 4.50414 18.633 4.37065 18.7665C4.23717 18.8999 4.0787 19.0058 3.90429 19.0781C3.72989 19.1503 3.54296 19.1875 3.35419 19.1875C3.16541 19.1875 2.97849 19.1503 2.80408 19.0781C2.62967 19.0058 2.47121 18.8999 2.33772 18.7665C2.20424 18.633 2.09835 18.4745 2.02611 18.3001C1.95387 18.1257 1.91669 17.9388 1.91669 17.75C1.91669 17.3688 2.06814 17.0031 2.33772 16.7335C2.6073 16.464 2.97294 16.3125 3.35419 16.3125C3.73544 16.3125 4.10107 16.464 4.37065 16.7335C4.64024 17.0031 4.79169 17.3688 4.79169 17.75Z" fill="white"/>
</svg>
