<svg width="33" height="27" viewBox="0 0 33 27" fill="none" xmlns="http://www.w3.org/2000/svg">
<path opacity="0.3" fill-rule="evenodd" clip-rule="evenodd" d="M23.9377 0.0859375C20.5512 0.0859375 17.8005 2.74289 17.8005 6.01953C17.8005 9.29415 20.5512 11.9531 23.9377 11.9531C29.7558 11.9531 26.3844 22.2569 19.0465 23.3302C18.7003 23.3796 18.3843 23.5437 18.1558 23.793C17.9272 24.0422 17.8012 24.3601 17.8005 24.6891C17.8005 25.5315 18.6024 26.1978 19.4906 26.0702C32.8277 24.1707 37.5701 0.0879625 23.9377 0.0879625V0.0859375ZM6.25481 0.0859375C2.86395 0.0859375 0.115479 2.74087 0.115479 6.01953C0.115479 9.29212 2.86395 11.9491 6.25481 11.9491C12.0708 11.9491 8.69933 22.2569 1.36145 23.3302C1.0156 23.3795 0.699909 23.5434 0.471409 23.7922C0.24291 24.041 0.116665 24.3584 0.115479 24.6871C0.115479 25.5295 0.917385 26.1958 1.80336 26.0682C15.1448 24.1686 19.8872 0.0859375 6.25481 0.0859375Z" fill="#000066"/>
</svg>
