<svg width="41" height="40" viewBox="0 0 41 40" fill="none" xmlns="http://www.w3.org/2000/svg">
<g clip-path="url(#clip0_63_666)">
<path d="M32.8176 26.3041C31.8402 26.3041 30.9116 26.687 30.2112 27.3793C29.5107 28.0798 29.1198 28.992 29.1198 29.9694C29.1198 30.9468 29.5026 31.859 30.2112 32.5595C30.9198 33.2518 31.8402 33.6346 32.8176 33.6346C34.8212 33.6346 36.4502 31.9893 36.4502 29.9694C36.4502 27.9494 34.8212 26.3041 32.8176 26.3041ZM32.8176 32.0056C31.6936 32.0056 30.7488 31.0771 30.7488 29.9694C30.7488 28.8617 31.6936 27.9331 32.8176 27.9331C33.9253 27.9331 34.8212 28.8454 34.8212 29.9694C34.8212 31.0934 33.9253 32.0056 32.8176 32.0056ZM33.7624 14.0948C33.6158 13.9564 33.4203 13.883 33.2167 13.883H29.0383C28.5903 13.883 28.2238 14.2496 28.2238 14.6975V21.3764C28.2238 21.8244 28.5903 22.1909 29.0383 22.1909H35.6683C36.1163 22.1909 36.4828 21.8244 36.4828 21.3764V16.9048C36.4828 16.6768 36.3851 16.4569 36.214 16.3021L33.7624 14.0948ZM34.8538 20.5619H29.8528V15.5039H32.899L34.8538 17.2632V20.5619ZM12.9275 26.3041C11.9501 26.3041 11.0216 26.687 10.3211 27.3793C9.62067 28.0798 9.22971 28.992 9.22971 29.9694C9.22971 30.9468 9.61253 31.859 10.3211 32.5595C11.0298 33.2518 11.9501 33.6346 12.9275 33.6346C14.9312 33.6346 16.5602 31.9893 16.5602 29.9694C16.5602 27.9494 14.9312 26.3041 12.9275 26.3041ZM12.9275 32.0056C11.8035 32.0056 10.8587 31.0771 10.8587 29.9694C10.8587 28.8617 11.8035 27.9331 12.9275 27.9331C14.0353 27.9331 14.9312 28.8454 14.9312 29.9694C14.9312 31.0934 14.0353 32.0056 12.9275 32.0056ZM7.49483 27.306H5.85769V25.1394C5.85769 24.6914 5.49117 24.3249 5.04319 24.3249C4.59522 24.3249 4.22869 24.6914 4.22869 25.1394V28.1205C4.22869 28.5684 4.59522 28.935 5.04319 28.935H7.49483C7.9428 28.935 8.30933 28.5684 8.30933 28.1205C8.30933 27.6725 7.9428 27.306 7.49483 27.306ZM11.6243 22.867C11.6243 22.419 11.2578 22.0525 10.8098 22.0525H0.929977C0.482003 22.0525 0.115479 22.419 0.115479 22.867C0.115479 23.3149 0.482003 23.6815 0.929977 23.6815H10.8098C11.2578 23.6815 11.6243 23.3231 11.6243 22.867ZM2.58341 19.9266L12.4633 19.9836C12.9112 19.9836 13.2778 19.6253 13.2859 19.1773C13.2941 18.7212 12.9275 18.3546 12.4796 18.3546L2.5997 18.2976C2.59155 18.2976 2.59155 18.2976 2.59155 18.2976C2.14358 18.2976 1.77705 18.656 1.77705 19.104C1.76891 19.5601 2.13543 19.9266 2.58341 19.9266ZM4.24498 16.2288H14.1248C14.5728 16.2288 14.9393 15.8623 14.9393 15.4143C14.9393 14.9663 14.5728 14.5998 14.1248 14.5998H4.24498C3.79701 14.5998 3.43049 14.9663 3.43049 15.4143C3.43049 15.8623 3.79701 16.2288 4.24498 16.2288ZM39.8141 15.1292L33.9823 10.2993C33.8357 10.1771 33.6565 10.1119 33.461 10.1119H26.603V7.17973C26.603 6.73176 26.2364 6.36523 25.7885 6.36523H5.04319C4.59522 6.36523 4.22869 6.73176 4.22869 7.17973V13.1419C4.22869 13.5898 4.59522 13.9564 5.04319 13.9564C5.49117 13.9564 5.85769 13.5898 5.85769 13.1419V7.99423H24.9821V27.306H18.3032C17.8552 27.306 17.4887 27.6725 17.4887 28.1205C17.4887 28.5684 17.8552 28.935 18.3032 28.935H28.2482C28.6962 28.935 29.0627 28.5684 29.0627 28.1205C29.0627 27.6725 28.6962 27.306 28.2482 27.306H26.6111V11.7409H33.176L38.4865 16.1392L38.4295 27.2897H37.5824C37.1344 27.2897 36.7679 27.6562 36.7679 28.1042C36.7679 28.5522 37.1344 28.9187 37.5824 28.9187H39.2358C39.6838 28.9187 40.0503 28.5603 40.0503 28.1123L40.1155 15.7645C40.1073 15.5202 40.0014 15.284 39.8141 15.1292Z" fill="#000066"/>
</g>
<defs>
<clipPath id="clip0_63_666">
<rect width="40" height="40" fill="white" transform="translate(0.115479)"/>
</clipPath>
</defs>
</svg>
