<svg width="22" height="18" viewBox="0 0 22 18" fill="none" xmlns="http://www.w3.org/2000/svg">
<path d="M2.99766 9.33426C2.56282 8.92186 2.2175 8.43035 1.9818 7.88833C1.7461 7.3463 1.62473 6.76457 1.62473 6.17698C1.62473 5.58938 1.7461 5.00766 1.9818 4.46563C2.2175 3.9236 2.56282 3.43209 2.99766 3.0197C3.88125 2.18157 5.07197 1.71173 6.3125 1.71173C7.55303 1.71173 8.74375 2.18157 9.62735 3.0197C10.0622 3.43183 10.4075 3.92314 10.6432 4.46499C10.8789 5.00685 11.0001 5.58843 11 6.17585C11 5.03281 11.4578 3.89127 12.3727 3.0197C13.2563 2.18157 14.447 1.71173 15.6875 1.71173C16.928 1.71173 18.1188 2.18157 19.0023 3.0197C19.4372 3.43209 19.7825 3.9236 20.0182 4.46563C20.2539 5.00766 20.3753 5.58938 20.3753 6.17698C20.3753 6.76457 20.2539 7.3463 20.0182 7.88833C19.7825 8.43035 19.4372 8.92186 19.0023 9.33426C18.393 9.91405 15.7258 12.1362 11 16C6.27657 12.1385 3.60938 9.91631 2.99766 9.33426V9.33426Z" stroke="#000066" stroke-width="2.25" stroke-linecap="round" stroke-linejoin="round"/>
</svg>
