<svg width="41" height="40" viewBox="0 0 41 40" fill="none" xmlns="http://www.w3.org/2000/svg">
<g clip-path="url(#clip0_63_693)">
<path d="M34.4669 15.2101V13.6723C34.4669 9.9916 33.1644 6.57143 30.8031 4.03361C28.3829 1.42857 25.0552 0 21.4249 0H20.156C16.5258 0 13.198 1.42857 10.7779 4.03361C8.41651 6.57143 7.11399 9.9916 7.11399 13.6723V15.2101C4.24844 15.4034 1.97113 17.7899 1.97113 20.7059V23.1092C1.97113 26.1429 4.44172 28.6134 7.47533 28.6134H10.5762C11.1308 28.6134 11.5846 28.1597 11.5846 27.605V16.2017C11.5846 15.6471 11.1308 15.1933 10.5762 15.1933H9.1308V13.6723C9.1308 7.02521 13.8703 2.01681 20.1476 2.01681H21.4165C27.7022 2.01681 32.4333 7.02521 32.4333 13.6723V15.1933H30.9879C30.4333 15.1933 29.9795 15.6471 29.9795 16.2017V27.5966C29.9795 28.1513 30.4333 28.605 30.9879 28.605H32.3997C31.9879 33.8655 28.3661 35.084 26.6854 35.3613C26.2232 33.9412 24.8871 32.916 23.3157 32.916H20.7947C18.8451 32.916 17.2568 34.5042 17.2568 36.4538C17.2568 38.4034 18.8451 40 20.7947 40H23.3241C24.9543 40 26.3241 38.8908 26.7358 37.395C27.5594 37.2773 28.8619 36.9832 30.156 36.2269C31.9795 35.1597 34.1392 32.9832 34.4249 28.5966C37.3073 28.4202 39.593 26.0252 39.593 23.1008V20.6975C39.6014 17.7899 37.3325 15.395 34.4669 15.2101ZM9.58458 26.5882H7.49214C5.56777 26.5882 4.00474 25.0252 4.00474 23.1008V20.6975C4.00474 18.7731 5.56777 17.2101 7.49214 17.2101H9.58458V26.5882ZM23.3241 37.9832H20.7947C19.9543 37.9832 19.2737 37.3025 19.2737 36.4622C19.2737 35.6218 19.9543 34.9412 20.7947 34.9412H23.3241C24.1644 34.9412 24.8451 35.6218 24.8451 36.4622C24.8451 37.3025 24.1644 37.9832 23.3241 37.9832ZM37.5846 23.1008C37.5846 25.0252 36.0216 26.5882 34.0972 26.5882H32.0047V17.2101H34.0972C36.0216 17.2101 37.5846 18.7731 37.5846 20.6975V23.1008Z" fill="#000066"/>
</g>
<defs>
<clipPath id="clip0_63_693">
<rect width="40" height="40" fill="white" transform="translate(0.782104)"/>
</clipPath>
</defs>
</svg>
