<svg xmlns="http://www.w3.org/2000/svg" xmlns:xlink="http://www.w3.org/1999/xlink" width="180" zoomAndPan="magnify" viewBox="0 0 135 33.749998" height="45" preserveAspectRatio="xMidYMid meet" version="1.0"><path fill="#e74b23" d="M 19.195312 6.242188 L 11.660156 2.777344 L 4.105469 6.246094 L 2.90625 5.691406 L 11.660156 1.671875 L 19.414062 5.238281 L 125.535156 5.238281 C 125.753906 4.566406 126.371094 4.082031 127.097656 4.082031 C 128.003906 4.082031 128.746094 4.835938 128.746094 5.761719 C 128.746094 6.695312 128.003906 7.449219 127.097656 7.449219 C 126.351562 7.449219 125.722656 6.9375 125.515625 6.242188 Z M 131.949219 7.722656 L 128.878906 7.722656 L 124.839844 14.628906 L 124.839844 7.722656 L 121.847656 7.722656 L 121.847656 19.050781 L 125.324219 19.050781 L 129.363281 12.152344 L 129.363281 19.050781 L 132.351562 19.050781 L 132.351562 7.722656 Z M 113.953125 16.628906 C 112.089844 16.628906 110.800781 15.332031 110.800781 13.386719 C 110.800781 11.449219 112.089844 10.152344 113.953125 10.152344 C 115.8125 10.152344 117.101562 11.449219 117.101562 13.386719 C 117.101562 15.332031 115.8125 16.628906 113.953125 16.628906 Z M 113.953125 7.40625 C 110.234375 7.40625 107.648438 10.152344 107.648438 13.386719 C 107.648438 16.628906 110.234375 19.378906 113.953125 19.378906 C 117.667969 19.378906 120.253906 16.628906 120.253906 13.386719 C 120.253906 10.152344 117.667969 7.40625 113.953125 7.40625 Z M 101.503906 13.226562 L 99.078125 13.226562 L 99.078125 10.480469 L 101.503906 10.480469 C 102.648438 10.480469 103.195312 11.027344 103.195312 11.855469 C 103.195312 12.679688 102.648438 13.226562 101.503906 13.226562 Z M 101.582031 7.722656 L 96.09375 7.722656 L 96.09375 19.050781 L 99.078125 19.050781 L 99.078125 15.976562 L 101.582031 15.976562 C 104.425781 15.976562 106.265625 14.117188 106.265625 11.855469 C 106.265625 9.589844 104.425781 7.722656 101.582031 7.722656 Z M 84.097656 10.480469 L 87.652344 10.480469 L 87.652344 19.050781 L 90.636719 19.050781 L 90.636719 10.480469 L 94.191406 10.480469 L 94.191406 7.722656 L 84.097656 7.722656 Z M 77.15625 10.152344 C 78.253906 10.152344 78.949219 10.574219 79.382812 11.011719 C 79.757812 11.335938 80.046875 11.90625 80.179688 12.410156 L 83.164062 12.410156 C 83.011719 11.316406 82.558594 10.402344 81.953125 9.636719 C 81.097656 8.535156 79.59375 7.40625 77.15625 7.40625 C 73.441406 7.40625 70.855469 9.992188 70.855469 13.386719 C 70.855469 16.789062 73.441406 19.378906 77.15625 19.378906 C 79.609375 19.378906 81.109375 18.214844 81.984375 17.03125 C 82.558594 16.289062 82.96875 15.386719 83.164062 14.351562 L 80.148438 14.351562 C 80.058594 14.859375 79.835938 15.246094 79.515625 15.65625 C 79.074219 16.15625 78.386719 16.628906 77.15625 16.628906 C 75.296875 16.628906 74.007812 15.332031 74.007812 13.386719 C 74.007812 11.449219 75.296875 10.152344 77.15625 10.152344 Z M 62.808594 14.199219 L 63.78125 10.480469 L 64.910156 10.480469 L 65.878906 14.199219 Z M 61.597656 7.722656 L 58.527344 19.050781 L 61.597656 19.050781 L 62.164062 16.789062 L 66.523438 16.789062 L 67.089844 19.050781 L 70.160156 19.050781 L 67.089844 7.722656 Z M 58.644531 7.722656 L 50.621094 7.722656 L 50.621094 19.050781 L 53.609375 19.050781 L 53.609375 10.480469 L 58.644531 10.480469 Z M 39.769531 12.167969 C 40.105469 11.035156 41.101562 10.058594 42.542969 10.058594 C 43.984375 10.058594 44.980469 11.054688 45.203125 12.167969 Z M 42.542969 7.390625 C 39.085938 7.390625 36.441406 10.058594 36.441406 13.386719 C 36.441406 16.71875 39.085938 19.390625 42.542969 19.390625 C 44.980469 19.390625 46.421875 18.386719 47.308594 17.390625 C 47.820312 16.789062 48.179688 16.125 48.421875 15.386719 L 45.097656 15.386719 C 44.960938 15.632812 44.785156 15.855469 44.558594 16.054688 C 44.140625 16.386719 43.539062 16.71875 42.542969 16.71875 C 41.101562 16.71875 39.902344 15.496094 39.660156 14.050781 L 48.527344 14.050781 L 48.527344 13.386719 C 48.527344 10.078125 46.089844 7.390625 42.542969 7.390625 Z M 27.988281 13.554688 L 27.585938 13.554688 L 25.246094 7.722656 L 21.039062 7.722656 L 21.039062 19.050781 L 24.03125 19.050781 L 24.03125 11.324219 L 26.132812 16.460938 L 29.441406 16.460938 L 31.542969 11.324219 L 31.542969 19.050781 L 34.527344 19.050781 L 34.527344 7.722656 L 30.332031 7.722656 Z M 18.398438 19.039062 L 4.90625 19.039062 L 4.90625 6.984375 L 11.660156 3.882812 L 18.398438 6.984375 Z M 18.398438 19.039062 " fill-opacity="1" fill-rule="evenodd"/><path fill="#0456a2" d="M 12.519531 30.011719 C 11.753906 29.273438 11.371094 28.332031 11.371094 27.195312 C 11.371094 26.0625 11.753906 25.125 12.519531 24.375 C 13.285156 23.632812 14.230469 23.261719 15.355469 23.261719 C 16.644531 23.261719 17.644531 23.71875 18.371094 24.625 C 18.683594 25.015625 18.921875 25.460938 19.066406 25.972656 L 17.847656 25.972656 C 17.722656 25.691406 17.542969 25.4375 17.320312 25.207031 C 16.800781 24.6875 16.144531 24.433594 15.355469 24.433594 C 14.554688 24.433594 13.90625 24.6875 13.402344 25.199219 C 12.898438 25.707031 12.648438 26.375 12.648438 27.195312 C 12.648438 28.019531 12.898438 28.683594 13.402344 29.195312 C 13.90625 29.707031 14.554688 29.960938 15.355469 29.960938 C 16.171875 29.960938 16.835938 29.675781 17.359375 29.113281 C 17.59375 28.871094 17.773438 28.589844 17.898438 28.261719 L 19.125 28.261719 C 18.941406 28.8125 18.679688 29.292969 18.347656 29.695312 C 17.613281 30.652344 16.609375 31.132812 15.355469 31.132812 C 14.230469 31.132812 13.285156 30.761719 12.519531 30.011719 Z M 23.101562 30.914062 L 23.101562 25.496094 L 24.21875 25.496094 L 24.21875 27.675781 L 26.871094 27.675781 L 26.871094 25.496094 L 27.988281 25.496094 L 27.988281 30.914062 L 26.871094 30.914062 L 26.871094 28.683594 L 24.21875 28.683594 L 24.21875 30.914062 Z M 29.667969 30.242188 C 29.179688 29.71875 28.9375 29.042969 28.9375 28.203125 C 28.9375 27.367188 29.179688 26.691406 29.667969 26.171875 C 30.152344 25.648438 30.757812 25.386719 31.492188 25.386719 C 31.949219 25.386719 32.371094 25.527344 32.753906 25.792969 C 32.914062 25.902344 33.0625 26.039062 33.1875 26.183594 L 33.238281 26.183594 L 33.238281 25.496094 L 34.355469 25.496094 L 34.355469 30.914062 L 33.238281 30.914062 L 33.238281 30.171875 L 33.1875 30.171875 C 33.082031 30.320312 32.933594 30.46875 32.753906 30.601562 C 32.371094 30.882812 31.949219 31.023438 31.492188 31.023438 C 30.757812 31.023438 30.152344 30.761719 29.667969 30.242188 Z M 30.535156 26.867188 C 30.253906 27.175781 30.105469 27.621094 30.105469 28.203125 C 30.105469 28.785156 30.253906 29.234375 30.535156 29.546875 C 30.816406 29.859375 31.203125 30.011719 31.703125 30.011719 C 32.167969 30.011719 32.542969 29.855469 32.820312 29.539062 C 33.097656 29.226562 33.238281 28.78125 33.238281 28.203125 C 33.238281 27.628906 33.097656 27.1875 32.820312 26.875 C 32.542969 26.554688 32.167969 26.402344 31.703125 26.402344 C 31.203125 26.402344 30.816406 26.554688 30.535156 26.867188 Z M 35.625 30.914062 L 35.625 25.496094 L 37.222656 25.496094 L 38.652344 28.734375 L 38.867188 28.734375 L 40.296875 25.496094 L 41.894531 25.496094 L 41.894531 30.914062 L 40.777344 30.914062 L 40.777344 27.09375 L 40.789062 26.984375 L 40.730469 26.984375 L 39.398438 29.960938 L 38.121094 29.960938 L 36.789062 26.984375 L 36.730469 26.984375 L 36.742188 27.09375 L 36.742188 30.914062 Z M 43.164062 30.914062 L 43.164062 25.496094 L 44.277344 25.496094 L 44.277344 29.113281 L 44.265625 29.214844 L 44.375 29.214844 L 46.824219 25.496094 L 48.050781 25.496094 L 48.050781 30.914062 L 46.933594 30.914062 L 46.933594 27.304688 L 46.945312 27.195312 L 46.839844 27.195312 L 44.386719 30.914062 Z M 52.292969 30.914062 L 52.292969 25.496094 L 55 25.496094 C 55.515625 25.496094 55.917969 25.621094 56.210938 25.863281 C 56.5 26.113281 56.644531 26.433594 56.644531 26.824219 C 56.644531 27.238281 56.503906 27.566406 56.21875 27.789062 C 56.078125 27.898438 55.9375 27.96875 55.796875 27.992188 L 55.796875 28.039062 C 55.980469 28.0625 56.15625 28.132812 56.328125 28.25 C 56.683594 28.492188 56.855469 28.863281 56.855469 29.367188 C 56.855469 29.800781 56.691406 30.171875 56.359375 30.472656 C 56.027344 30.769531 55.59375 30.914062 55.050781 30.914062 Z M 53.410156 27.621094 L 54.898438 27.621094 C 55.320312 27.621094 55.527344 27.425781 55.527344 27.035156 C 55.527344 26.683594 55.320312 26.503906 54.898438 26.503906 L 53.410156 26.503906 Z M 53.410156 29.90625 L 55 29.90625 C 55.234375 29.90625 55.414062 29.847656 55.546875 29.71875 C 55.675781 29.597656 55.746094 29.433594 55.746094 29.214844 C 55.746094 29.023438 55.675781 28.871094 55.546875 28.753906 C 55.414062 28.640625 55.234375 28.582031 55 28.582031 L 53.410156 28.582031 Z M 58.324219 30.222656 C 57.808594 29.695312 57.546875 29.023438 57.546875 28.203125 C 57.546875 27.394531 57.808594 26.714844 58.324219 26.183594 C 58.839844 25.652344 59.484375 25.386719 60.257812 25.386719 C 61.117188 25.386719 61.820312 25.71875 62.371094 26.375 C 62.597656 26.683594 62.765625 27.007812 62.855469 27.355469 L 61.6875 27.355469 C 61.636719 27.175781 61.546875 27.023438 61.414062 26.875 C 61.136719 26.554688 60.75 26.402344 60.257812 26.402344 C 59.816406 26.402344 59.445312 26.566406 59.152344 26.902344 C 58.859375 27.234375 58.714844 27.667969 58.714844 28.203125 C 58.714844 28.746094 58.859375 29.183594 59.152344 29.515625 C 59.445312 29.847656 59.816406 30.011719 60.257812 30.011719 C 60.761719 30.011719 61.164062 29.855469 61.457031 29.535156 C 61.585938 29.394531 61.675781 29.234375 61.738281 29.054688 L 62.855469 29.054688 C 62.765625 29.417969 62.597656 29.746094 62.371094 30.046875 C 61.828125 30.699219 61.125 31.023438 60.257812 31.023438 C 59.484375 31.023438 58.839844 30.761719 58.324219 30.222656 Z M 64.238281 30.210938 C 63.703125 29.667969 63.441406 29.003906 63.441406 28.203125 C 63.441406 27.410156 63.703125 26.746094 64.238281 26.203125 C 64.773438 25.660156 65.425781 25.386719 66.199219 25.386719 C 66.96875 25.386719 67.621094 25.660156 68.15625 26.203125 C 68.691406 26.746094 68.960938 27.410156 68.960938 28.203125 L 68.960938 28.582031 L 64.550781 28.582031 C 64.640625 29.023438 64.832031 29.375 65.140625 29.628906 C 65.4375 29.886719 65.796875 30.011719 66.199219 30.011719 C 66.695312 30.011719 67.089844 29.890625 67.386719 29.644531 C 67.527344 29.539062 67.640625 29.417969 67.734375 29.273438 L 68.902344 29.273438 C 68.757812 29.617188 68.570312 29.910156 68.34375 30.152344 C 67.761719 30.734375 67.046875 31.023438 66.199219 31.023438 C 65.425781 31.023438 64.773438 30.753906 64.238281 30.210938 Z M 64.609375 27.675781 L 67.792969 27.675781 C 67.730469 27.324219 67.558594 27.023438 67.289062 26.773438 C 67.015625 26.523438 66.652344 26.402344 66.199219 26.402344 C 65.816406 26.402344 65.476562 26.515625 65.175781 26.746094 C 64.882812 26.976562 64.691406 27.285156 64.609375 27.675781 Z M 66.726562 24.515625 C 66.605469 24.394531 66.550781 24.242188 66.550781 24.0625 C 66.550781 23.878906 66.605469 23.722656 66.726562 23.601562 C 66.847656 23.480469 67.003906 23.421875 67.1875 23.421875 C 67.371094 23.421875 67.527344 23.480469 67.640625 23.601562 C 67.761719 23.722656 67.824219 23.878906 67.824219 24.0625 C 67.824219 24.242188 67.761719 24.394531 67.640625 24.515625 C 67.527344 24.636719 67.371094 24.695312 67.1875 24.695312 C 67.003906 24.695312 66.847656 24.636719 66.726562 24.515625 Z M 64.769531 24.515625 C 64.648438 24.394531 64.582031 24.242188 64.582031 24.0625 C 64.582031 23.878906 64.648438 23.722656 64.769531 23.601562 C 64.882812 23.480469 65.035156 23.421875 65.222656 23.421875 C 65.40625 23.421875 65.558594 23.480469 65.679688 23.601562 C 65.796875 23.722656 65.859375 23.878906 65.859375 24.0625 C 65.859375 24.242188 65.796875 24.394531 65.679688 24.515625 C 65.558594 24.636719 65.40625 24.695312 65.222656 24.695312 C 65.035156 24.695312 64.882812 24.636719 64.769531 24.515625 Z M 72.886719 30.914062 L 72.886719 25.496094 L 77.714844 25.496094 L 77.714844 30.914062 L 76.597656 30.914062 L 76.597656 26.503906 L 74.003906 26.503906 L 74.003906 30.914062 Z M 79.484375 30.210938 C 78.941406 29.667969 78.671875 29.003906 78.671875 28.203125 C 78.671875 27.410156 78.941406 26.746094 79.484375 26.203125 C 80.027344 25.660156 80.691406 25.386719 81.488281 25.386719 C 82.277344 25.386719 82.941406 25.660156 83.484375 26.203125 C 84.027344 26.746094 84.296875 27.410156 84.296875 28.203125 C 84.296875 29.003906 84.027344 29.667969 83.484375 30.210938 C 82.941406 30.753906 82.277344 31.023438 81.488281 31.023438 C 80.691406 31.023438 80.027344 30.753906 79.484375 30.210938 Z M 80.292969 26.894531 C 79.996094 27.21875 79.839844 27.660156 79.839844 28.203125 C 79.839844 28.753906 79.996094 29.1875 80.292969 29.519531 C 80.601562 29.847656 80.996094 30.011719 81.488281 30.011719 C 81.972656 30.011719 82.367188 29.847656 82.675781 29.519531 C 82.980469 29.1875 83.128906 28.753906 83.128906 28.203125 C 83.128906 27.660156 82.980469 27.21875 82.675781 26.894531 C 82.367188 26.5625 81.972656 26.402344 81.488281 26.402344 C 80.996094 26.402344 80.601562 26.5625 80.292969 26.894531 Z M 84.671875 30.914062 L 86.152344 25.496094 L 88.542969 25.496094 L 90.03125 30.914062 L 88.863281 30.914062 L 87.695312 26.503906 L 87.007812 26.503906 L 85.839844 30.914062 Z M 90.191406 25.496094 L 91.359375 25.496094 L 92.527344 29.855469 L 93.105469 29.855469 L 94.382812 25.496094 L 95.550781 25.496094 L 93.316406 32.941406 L 92.148438 32.941406 L 92.789062 30.914062 L 91.671875 30.914062 Z M 95.972656 27.515625 L 95.972656 25.496094 L 97.089844 25.496094 L 97.089844 27.410156 C 97.089844 27.726562 97.179688 27.972656 97.363281 28.152344 C 97.546875 28.332031 97.808594 28.421875 98.148438 28.421875 C 98.558594 28.421875 98.902344 28.363281 99.167969 28.261719 C 99.304688 28.21875 99.40625 28.167969 99.476562 28.101562 L 99.476562 25.496094 L 100.59375 25.496094 L 100.59375 30.914062 L 99.476562 30.914062 L 99.476562 29.054688 C 99.359375 29.136719 99.246094 29.203125 99.117188 29.246094 C 98.8125 29.367188 98.453125 29.433594 98.046875 29.433594 C 97.382812 29.433594 96.878906 29.257812 96.515625 28.921875 C 96.152344 28.582031 95.972656 28.109375 95.972656 27.515625 Z M 101.863281 30.914062 L 101.863281 25.496094 L 102.980469 25.496094 L 102.980469 29.113281 L 102.964844 29.214844 L 103.074219 29.214844 L 105.523438 25.496094 L 106.75 25.496094 L 106.75 30.914062 L 105.632812 30.914062 L 105.632812 27.304688 L 105.644531 27.195312 L 105.539062 27.195312 L 103.085938 30.914062 Z M 107.4375 26.503906 L 107.4375 25.496094 L 112.160156 25.496094 L 112.160156 26.503906 L 110.355469 26.503906 L 110.355469 30.914062 L 109.238281 30.914062 L 109.238281 26.503906 Z M 113.308594 30.222656 C 112.792969 29.695312 112.53125 29.023438 112.53125 28.203125 C 112.53125 27.394531 112.792969 26.714844 113.308594 26.183594 C 113.828125 25.652344 114.464844 25.386719 115.238281 25.386719 C 116.105469 25.386719 116.804688 25.71875 117.347656 26.375 C 117.585938 26.683594 117.746094 27.007812 117.839844 27.355469 L 116.671875 27.355469 C 116.621094 27.175781 116.53125 27.023438 116.398438 26.875 C 116.117188 26.554688 115.734375 26.402344 115.238281 26.402344 C 114.804688 26.402344 114.433594 26.566406 114.140625 26.902344 C 113.847656 27.234375 113.699219 27.667969 113.699219 28.203125 C 113.699219 28.746094 113.847656 29.183594 114.140625 29.515625 C 114.433594 29.847656 114.804688 30.011719 115.238281 30.011719 C 115.746094 30.011719 116.148438 29.855469 116.4375 29.535156 C 116.5625 29.394531 116.660156 29.234375 116.722656 29.054688 L 117.839844 29.054688 C 117.746094 29.417969 117.585938 29.746094 117.347656 30.046875 C 116.8125 30.699219 116.109375 31.023438 115.238281 31.023438 C 114.464844 31.023438 113.828125 30.761719 113.308594 30.222656 Z M 118.53125 30.914062 L 119.589844 28.953125 C 119.410156 28.863281 119.238281 28.753906 119.085938 28.613281 C 118.746094 28.292969 118.582031 27.871094 118.582031 27.355469 C 118.582031 26.8125 118.773438 26.363281 119.15625 26.019531 C 119.539062 25.667969 120.054688 25.496094 120.707031 25.496094 L 123.148438 25.496094 L 123.148438 30.914062 L 122.03125 30.914062 L 122.03125 29.273438 L 120.65625 29.273438 L 119.804688 30.914062 Z M 119.75 27.355469 C 119.75 27.640625 119.835938 27.859375 120.003906 28.019531 C 120.175781 28.179688 120.425781 28.261719 120.757812 28.261719 L 122.03125 28.261719 L 122.03125 26.503906 L 120.757812 26.503906 C 120.449219 26.503906 120.203125 26.585938 120.023438 26.746094 C 119.835938 26.90625 119.75 27.105469 119.75 27.355469 Z M 124.6875 27.144531 L 124.6875 23.472656 L 125.855469 23.472656 L 125.855469 27.144531 L 125.644531 28.683594 L 124.898438 28.683594 Z M 124.738281 30.863281 C 124.597656 30.722656 124.527344 30.542969 124.527344 30.332031 C 124.527344 30.121094 124.597656 29.941406 124.738281 29.800781 C 124.878906 29.660156 125.058594 29.589844 125.269531 29.589844 C 125.484375 29.589844 125.65625 29.660156 125.804688 29.800781 C 125.945312 29.941406 126.015625 30.121094 126.015625 30.332031 C 126.015625 30.542969 125.945312 30.722656 125.804688 30.863281 C 125.65625 31.003906 125.484375 31.074219 125.269531 31.074219 C 125.058594 31.074219 124.878906 31.003906 124.738281 30.863281 Z M 124.738281 30.863281 " fill-opacity="1" fill-rule="nonzero"/></svg>