<svg xmlns="http://www.w3.org/2000/svg" xmlns:xlink="http://www.w3.org/1999/xlink" width="180" zoomAndPan="magnify" viewBox="0 0 135 41.25" height="55" preserveAspectRatio="xMidYMid meet" version="1.0"><defs><clipPath id="3cc3324bf1"><path d="M 20 7 L 44 7 L 44 38 L 20 38 Z M 20 7 " clip-rule="nonzero"/></clipPath><clipPath id="3d8e972754"><path d="M 23.152344 20.164062 C 22.695312 21.261719 22.054688 22.910156 21.414062 25.101562 C 21.414062 25.195312 21.414062 25.195312 21.324219 25.285156 C 21.140625 25.742188 21.140625 25.835938 21.046875 25.835938 C 19.949219 31.503906 21.140625 35.894531 21.597656 37.082031 C 21.597656 37.082031 22.96875 37.082031 23.609375 36.992188 C 35.128906 35.527344 44 25.742188 44 13.855469 C 44 11.476562 43.632812 9.285156 42.992188 7.089844 C 34.308594 7.453125 26.808594 12.667969 23.152344 20.164062 Z M 23.152344 20.164062 " clip-rule="evenodd"/></clipPath><linearGradient x1="29.594706" gradientTransform="matrix(0.914409, 0, 0, -0.914409, 1.205358, 87.465729)" y1="90.047085" x2="38.317817" gradientUnits="userSpaceOnUse" y2="53.097503" id="c8362105eb"><stop stop-opacity="1" stop-color="rgb(0%, 67.498779%, 28.999329%)" offset="0"/><stop stop-opacity="1" stop-color="rgb(0%, 67.498779%, 28.999329%)" offset="0.159167"/><stop stop-opacity="1" stop-color="rgb(0%, 67.498779%, 28.999329%)" offset="0.25"/><stop stop-opacity="1" stop-color="rgb(0%, 67.498779%, 28.999329%)" offset="0.375"/><stop stop-opacity="1" stop-color="rgb(0.138855%, 67.523193%, 28.985596%)" offset="0.4375"/><stop stop-opacity="1" stop-color="rgb(1.002502%, 67.672729%, 28.907776%)" offset="0.441406"/><stop stop-opacity="1" stop-color="rgb(1.727295%, 67.799377%, 28.843689%)" offset="0.445312"/><stop stop-opacity="1" stop-color="rgb(2.452087%, 67.9245%, 28.778076%)" offset="0.449219"/><stop stop-opacity="1" stop-color="rgb(3.17688%, 68.049622%, 28.712463%)" offset="0.453125"/><stop stop-opacity="1" stop-color="rgb(3.901672%, 68.174744%, 28.646851%)" offset="0.457031"/><stop stop-opacity="1" stop-color="rgb(4.626465%, 68.301392%, 28.581238%)" offset="0.460938"/><stop stop-opacity="1" stop-color="rgb(5.351257%, 68.426514%, 28.515625%)" offset="0.464844"/><stop stop-opacity="1" stop-color="rgb(6.07605%, 68.553162%, 28.450012%)" offset="0.46875"/><stop stop-opacity="1" stop-color="rgb(6.800842%, 68.678284%, 28.384399%)" offset="0.472656"/><stop stop-opacity="1" stop-color="rgb(7.525635%, 68.804932%, 28.320312%)" offset="0.476563"/><stop stop-opacity="1" stop-color="rgb(8.250427%, 68.930054%, 28.2547%)" offset="0.480469"/><stop stop-opacity="1" stop-color="rgb(8.97522%, 69.056702%, 28.189087%)" offset="0.484375"/><stop stop-opacity="1" stop-color="rgb(9.700012%, 69.181824%, 28.123474%)" offset="0.488281"/><stop stop-opacity="1" stop-color="rgb(10.426331%, 69.306946%, 28.057861%)" offset="0.492188"/><stop stop-opacity="1" stop-color="rgb(11.151123%, 69.432068%, 27.992249%)" offset="0.496094"/><stop stop-opacity="1" stop-color="rgb(11.875916%, 69.558716%, 27.926636%)" offset="0.5"/><stop stop-opacity="1" stop-color="rgb(12.600708%, 69.683838%, 27.861023%)" offset="0.503906"/><stop stop-opacity="1" stop-color="rgb(13.3255%, 69.810486%, 27.796936%)" offset="0.507812"/><stop stop-opacity="1" stop-color="rgb(14.050293%, 69.935608%, 27.731323%)" offset="0.511719"/><stop stop-opacity="1" stop-color="rgb(14.775085%, 70.062256%, 27.66571%)" offset="0.515625"/><stop stop-opacity="1" stop-color="rgb(15.499878%, 70.187378%, 27.600098%)" offset="0.519531"/><stop stop-opacity="1" stop-color="rgb(16.22467%, 70.314026%, 27.534485%)" offset="0.523438"/><stop stop-opacity="1" stop-color="rgb(16.949463%, 70.439148%, 27.468872%)" offset="0.527344"/><stop stop-opacity="1" stop-color="rgb(17.674255%, 70.56427%, 27.403259%)" offset="0.53125"/><stop stop-opacity="1" stop-color="rgb(18.399048%, 70.689392%, 27.337646%)" offset="0.535156"/><stop stop-opacity="1" stop-color="rgb(19.12384%, 70.81604%, 27.27356%)" offset="0.539063"/><stop stop-opacity="1" stop-color="rgb(19.848633%, 70.941162%, 27.207947%)" offset="0.542969"/><stop stop-opacity="1" stop-color="rgb(20.573425%, 71.06781%, 27.142334%)" offset="0.546875"/><stop stop-opacity="1" stop-color="rgb(21.298218%, 71.192932%, 27.076721%)" offset="0.550781"/><stop stop-opacity="1" stop-color="rgb(22.02301%, 71.31958%, 27.011108%)" offset="0.554688"/><stop stop-opacity="1" stop-color="rgb(22.747803%, 71.444702%, 26.945496%)" offset="0.558594"/><stop stop-opacity="1" stop-color="rgb(23.474121%, 71.57135%, 26.879883%)" offset="0.5625"/><stop stop-opacity="1" stop-color="rgb(24.198914%, 71.696472%, 26.81427%)" offset="0.566406"/><stop stop-opacity="1" stop-color="rgb(24.923706%, 71.821594%, 26.750183%)" offset="0.570313"/><stop stop-opacity="1" stop-color="rgb(25.648499%, 71.946716%, 26.68457%)" offset="0.574219"/><stop stop-opacity="1" stop-color="rgb(26.373291%, 72.073364%, 26.618958%)" offset="0.578125"/><stop stop-opacity="1" stop-color="rgb(27.098083%, 72.198486%, 26.553345%)" offset="0.582031"/><stop stop-opacity="1" stop-color="rgb(27.822876%, 72.325134%, 26.487732%)" offset="0.585938"/><stop stop-opacity="1" stop-color="rgb(28.547668%, 72.450256%, 26.422119%)" offset="0.589844"/><stop stop-opacity="1" stop-color="rgb(29.272461%, 72.576904%, 26.356506%)" offset="0.59375"/><stop stop-opacity="1" stop-color="rgb(29.997253%, 72.702026%, 26.290894%)" offset="0.597656"/><stop stop-opacity="1" stop-color="rgb(30.722046%, 72.828674%, 26.225281%)" offset="0.601562"/><stop stop-opacity="1" stop-color="rgb(31.446838%, 72.953796%, 26.159668%)" offset="0.605469"/><stop stop-opacity="1" stop-color="rgb(32.171631%, 73.078918%, 26.095581%)" offset="0.609375"/><stop stop-opacity="1" stop-color="rgb(32.896423%, 73.204041%, 26.029968%)" offset="0.613281"/><stop stop-opacity="1" stop-color="rgb(33.621216%, 73.330688%, 25.964355%)" offset="0.617188"/><stop stop-opacity="1" stop-color="rgb(34.346008%, 73.455811%, 25.898743%)" offset="0.621094"/><stop stop-opacity="1" stop-color="rgb(35.072327%, 73.582458%, 25.83313%)" offset="0.625"/><stop stop-opacity="1" stop-color="rgb(35.797119%, 73.707581%, 25.767517%)" offset="0.628906"/><stop stop-opacity="1" stop-color="rgb(36.521912%, 73.834229%, 25.701904%)" offset="0.632813"/><stop stop-opacity="1" stop-color="rgb(37.246704%, 73.959351%, 25.636292%)" offset="0.636719"/><stop stop-opacity="1" stop-color="rgb(37.971497%, 74.085999%, 25.572205%)" offset="0.640625"/><stop stop-opacity="1" stop-color="rgb(38.696289%, 74.211121%, 25.506592%)" offset="0.644531"/><stop stop-opacity="1" stop-color="rgb(39.421082%, 74.336243%, 25.440979%)" offset="0.648438"/><stop stop-opacity="1" stop-color="rgb(40.145874%, 74.461365%, 25.375366%)" offset="0.652344"/><stop stop-opacity="1" stop-color="rgb(40.870667%, 74.588013%, 25.309753%)" offset="0.65625"/><stop stop-opacity="1" stop-color="rgb(41.595459%, 74.713135%, 25.244141%)" offset="0.660156"/><stop stop-opacity="1" stop-color="rgb(42.320251%, 74.839783%, 25.178528%)" offset="0.664062"/><stop stop-opacity="1" stop-color="rgb(43.045044%, 74.964905%, 25.112915%)" offset="0.667969"/><stop stop-opacity="1" stop-color="rgb(43.769836%, 75.091553%, 25.048828%)" offset="0.671875"/><stop stop-opacity="1" stop-color="rgb(44.494629%, 75.216675%, 24.983215%)" offset="0.675781"/><stop stop-opacity="1" stop-color="rgb(45.219421%, 75.343323%, 24.917603%)" offset="0.679688"/><stop stop-opacity="1" stop-color="rgb(45.944214%, 75.468445%, 24.85199%)" offset="0.683594"/><stop stop-opacity="1" stop-color="rgb(46.669006%, 75.593567%, 24.786377%)" offset="0.6875"/><stop stop-opacity="1" stop-color="rgb(47.393799%, 75.718689%, 24.720764%)" offset="0.691406"/><stop stop-opacity="1" stop-color="rgb(48.120117%, 75.845337%, 24.655151%)" offset="0.695313"/><stop stop-opacity="1" stop-color="rgb(48.84491%, 75.970459%, 24.589539%)" offset="0.699219"/><stop stop-opacity="1" stop-color="rgb(49.569702%, 76.097107%, 24.525452%)" offset="0.703125"/><stop stop-opacity="1" stop-color="rgb(50.294495%, 76.222229%, 24.459839%)" offset="0.707031"/><stop stop-opacity="1" stop-color="rgb(51.019287%, 76.348877%, 24.394226%)" offset="0.710938"/><stop stop-opacity="1" stop-color="rgb(51.74408%, 76.473999%, 24.328613%)" offset="0.714844"/><stop stop-opacity="1" stop-color="rgb(52.468872%, 76.600647%, 24.263%)" offset="0.71875"/><stop stop-opacity="1" stop-color="rgb(53.193665%, 76.725769%, 24.197388%)" offset="0.722656"/><stop stop-opacity="1" stop-color="rgb(53.918457%, 76.850891%, 24.131775%)" offset="0.726563"/><stop stop-opacity="1" stop-color="rgb(54.64325%, 76.976013%, 24.066162%)" offset="0.730469"/><stop stop-opacity="1" stop-color="rgb(55.368042%, 77.102661%, 24.002075%)" offset="0.734375"/><stop stop-opacity="1" stop-color="rgb(55.932617%, 77.200317%, 23.950195%)" offset="0.738281"/><stop stop-opacity="1" stop-color="rgb(56.498718%, 77.2995%, 23.899841%)" offset="0.742188"/><stop stop-opacity="1" stop-color="rgb(56.498718%, 77.2995%, 23.899841%)" offset="0.75"/><stop stop-opacity="1" stop-color="rgb(56.498718%, 77.2995%, 23.899841%)" offset="0.840833"/><stop stop-opacity="1" stop-color="rgb(56.498718%, 77.2995%, 23.899841%)" offset="1"/></linearGradient><clipPath id="7cac412976"><path d="M 12 15 L 22 15 L 22 38 L 12 38 Z M 12 15 " clip-rule="nonzero"/></clipPath><clipPath id="f92f074b3f"><path d="M 12.816406 23.273438 C 12.816406 29.402344 16.476562 34.703125 21.6875 37.082031 C 21.230469 35.800781 20.042969 31.503906 21.140625 25.835938 C 21.046875 25.742188 21.230469 24.371094 21.324219 23.640625 C 21.503906 22.632812 21.597656 21.71875 21.78125 20.898438 C 20.132812 18.429688 17.847656 16.417969 15.195312 15.136719 C 13.734375 17.421875 12.816406 20.257812 12.816406 23.273438 Z M 12.816406 23.273438 " clip-rule="evenodd"/></clipPath><linearGradient x1="15.039502" gradientTransform="matrix(0.914409, 0, 0, -0.914409, 1.205358, 87.465729)" y1="79.740226" x2="21.832532" gradientUnits="userSpaceOnUse" y2="54.917331" id="24ccc59390"><stop stop-opacity="1" stop-color="rgb(0%, 67.498779%, 28.999329%)" offset="0"/><stop stop-opacity="1" stop-color="rgb(0%, 67.498779%, 28.999329%)" offset="0.100513"/><stop stop-opacity="1" stop-color="rgb(0%, 67.498779%, 28.999329%)" offset="0.125"/><stop stop-opacity="1" stop-color="rgb(0.00305176%, 67.498779%, 28.997803%)" offset="0.132812"/><stop stop-opacity="1" stop-color="rgb(0.346375%, 67.558289%, 28.967285%)" offset="0.136719"/><stop stop-opacity="1" stop-color="rgb(0.68512%, 67.617798%, 28.936768%)" offset="0.140625"/><stop stop-opacity="1" stop-color="rgb(1.022339%, 67.675781%, 28.90625%)" offset="0.144531"/><stop stop-opacity="1" stop-color="rgb(1.361084%, 67.735291%, 28.875732%)" offset="0.148437"/><stop stop-opacity="1" stop-color="rgb(1.699829%, 67.793274%, 28.845215%)" offset="0.152344"/><stop stop-opacity="1" stop-color="rgb(2.038574%, 67.852783%, 28.814697%)" offset="0.15625"/><stop stop-opacity="1" stop-color="rgb(2.375793%, 67.910767%, 28.78418%)" offset="0.160156"/><stop stop-opacity="1" stop-color="rgb(2.714539%, 67.970276%, 28.753662%)" offset="0.164062"/><stop stop-opacity="1" stop-color="rgb(3.051758%, 68.028259%, 28.723145%)" offset="0.167969"/><stop stop-opacity="1" stop-color="rgb(3.390503%, 68.087769%, 28.692627%)" offset="0.171875"/><stop stop-opacity="1" stop-color="rgb(3.729248%, 68.145752%, 28.662109%)" offset="0.175781"/><stop stop-opacity="1" stop-color="rgb(4.067993%, 68.205261%, 28.631592%)" offset="0.179688"/><stop stop-opacity="1" stop-color="rgb(4.405212%, 68.263245%, 28.601074%)" offset="0.183594"/><stop stop-opacity="1" stop-color="rgb(4.743958%, 68.322754%, 28.570557%)" offset="0.1875"/><stop stop-opacity="1" stop-color="rgb(5.081177%, 68.380737%, 28.540039%)" offset="0.191406"/><stop stop-opacity="1" stop-color="rgb(5.419922%, 68.440247%, 28.509521%)" offset="0.195312"/><stop stop-opacity="1" stop-color="rgb(5.758667%, 68.49823%, 28.479004%)" offset="0.199219"/><stop stop-opacity="1" stop-color="rgb(6.097412%, 68.556213%, 28.448486%)" offset="0.203125"/><stop stop-opacity="1" stop-color="rgb(6.434631%, 68.614197%, 28.417969%)" offset="0.207031"/><stop stop-opacity="1" stop-color="rgb(6.773376%, 68.673706%, 28.387451%)" offset="0.210938"/><stop stop-opacity="1" stop-color="rgb(7.112122%, 68.731689%, 28.356934%)" offset="0.214844"/><stop stop-opacity="1" stop-color="rgb(7.450867%, 68.791199%, 28.326416%)" offset="0.21875"/><stop stop-opacity="1" stop-color="rgb(7.788086%, 68.849182%, 28.295898%)" offset="0.222656"/><stop stop-opacity="1" stop-color="rgb(8.126831%, 68.908691%, 28.265381%)" offset="0.226562"/><stop stop-opacity="1" stop-color="rgb(8.46405%, 68.966675%, 28.234863%)" offset="0.230469"/><stop stop-opacity="1" stop-color="rgb(8.802795%, 69.026184%, 28.204346%)" offset="0.234375"/><stop stop-opacity="1" stop-color="rgb(9.141541%, 69.084167%, 28.173828%)" offset="0.238281"/><stop stop-opacity="1" stop-color="rgb(9.480286%, 69.143677%, 28.143311%)" offset="0.242187"/><stop stop-opacity="1" stop-color="rgb(9.817505%, 69.20166%, 28.112793%)" offset="0.246094"/><stop stop-opacity="1" stop-color="rgb(10.15625%, 69.261169%, 28.082275%)" offset="0.25"/><stop stop-opacity="1" stop-color="rgb(10.494995%, 69.319153%, 28.051758%)" offset="0.253906"/><stop stop-opacity="1" stop-color="rgb(10.83374%, 69.378662%, 28.02124%)" offset="0.257812"/><stop stop-opacity="1" stop-color="rgb(11.170959%, 69.436646%, 27.990723%)" offset="0.261719"/><stop stop-opacity="1" stop-color="rgb(11.509705%, 69.496155%, 27.960205%)" offset="0.265625"/><stop stop-opacity="1" stop-color="rgb(11.846924%, 69.554138%, 27.929688%)" offset="0.269531"/><stop stop-opacity="1" stop-color="rgb(12.185669%, 69.613647%, 27.89917%)" offset="0.273437"/><stop stop-opacity="1" stop-color="rgb(12.524414%, 69.671631%, 27.868652%)" offset="0.277344"/><stop stop-opacity="1" stop-color="rgb(12.863159%, 69.73114%, 27.838135%)" offset="0.28125"/><stop stop-opacity="1" stop-color="rgb(13.200378%, 69.789124%, 27.807617%)" offset="0.285156"/><stop stop-opacity="1" stop-color="rgb(13.539124%, 69.847107%, 27.7771%)" offset="0.289062"/><stop stop-opacity="1" stop-color="rgb(13.877869%, 69.90509%, 27.746582%)" offset="0.292969"/><stop stop-opacity="1" stop-color="rgb(14.216614%, 69.9646%, 27.716064%)" offset="0.296875"/><stop stop-opacity="1" stop-color="rgb(14.553833%, 70.022583%, 27.685547%)" offset="0.300781"/><stop stop-opacity="1" stop-color="rgb(14.892578%, 70.082092%, 27.655029%)" offset="0.304688"/><stop stop-opacity="1" stop-color="rgb(15.229797%, 70.140076%, 27.624512%)" offset="0.308594"/><stop stop-opacity="1" stop-color="rgb(15.568542%, 70.199585%, 27.593994%)" offset="0.3125"/><stop stop-opacity="1" stop-color="rgb(15.907288%, 70.257568%, 27.563477%)" offset="0.316406"/><stop stop-opacity="1" stop-color="rgb(16.246033%, 70.317078%, 27.532959%)" offset="0.320312"/><stop stop-opacity="1" stop-color="rgb(16.583252%, 70.375061%, 27.502441%)" offset="0.324219"/><stop stop-opacity="1" stop-color="rgb(16.921997%, 70.43457%, 27.471924%)" offset="0.328125"/><stop stop-opacity="1" stop-color="rgb(17.260742%, 70.492554%, 27.441406%)" offset="0.332031"/><stop stop-opacity="1" stop-color="rgb(17.599487%, 70.552063%, 27.410889%)" offset="0.335938"/><stop stop-opacity="1" stop-color="rgb(17.936707%, 70.610046%, 27.380371%)" offset="0.339844"/><stop stop-opacity="1" stop-color="rgb(18.275452%, 70.669556%, 27.349854%)" offset="0.34375"/><stop stop-opacity="1" stop-color="rgb(18.612671%, 70.727539%, 27.319336%)" offset="0.347656"/><stop stop-opacity="1" stop-color="rgb(18.951416%, 70.787048%, 27.288818%)" offset="0.351562"/><stop stop-opacity="1" stop-color="rgb(19.290161%, 70.845032%, 27.258301%)" offset="0.355469"/><stop stop-opacity="1" stop-color="rgb(19.628906%, 70.904541%, 27.227783%)" offset="0.359375"/><stop stop-opacity="1" stop-color="rgb(19.966125%, 70.962524%, 27.197266%)" offset="0.363281"/><stop stop-opacity="1" stop-color="rgb(20.304871%, 71.022034%, 27.166748%)" offset="0.367187"/><stop stop-opacity="1" stop-color="rgb(20.64209%, 71.080017%, 27.13623%)" offset="0.371094"/><stop stop-opacity="1" stop-color="rgb(20.980835%, 71.138%, 27.105713%)" offset="0.375"/><stop stop-opacity="1" stop-color="rgb(21.31958%, 71.195984%, 27.075195%)" offset="0.378906"/><stop stop-opacity="1" stop-color="rgb(21.658325%, 71.255493%, 27.044678%)" offset="0.382812"/><stop stop-opacity="1" stop-color="rgb(21.995544%, 71.313477%, 27.01416%)" offset="0.386719"/><stop stop-opacity="1" stop-color="rgb(22.33429%, 71.372986%, 26.983643%)" offset="0.390625"/><stop stop-opacity="1" stop-color="rgb(22.673035%, 71.430969%, 26.953125%)" offset="0.394531"/><stop stop-opacity="1" stop-color="rgb(23.01178%, 71.490479%, 26.922607%)" offset="0.398438"/><stop stop-opacity="1" stop-color="rgb(23.348999%, 71.548462%, 26.89209%)" offset="0.402344"/><stop stop-opacity="1" stop-color="rgb(23.687744%, 71.607971%, 26.861572%)" offset="0.40625"/><stop stop-opacity="1" stop-color="rgb(24.024963%, 71.665955%, 26.831055%)" offset="0.410156"/><stop stop-opacity="1" stop-color="rgb(24.363708%, 71.725464%, 26.800537%)" offset="0.414062"/><stop stop-opacity="1" stop-color="rgb(24.702454%, 71.783447%, 26.77002%)" offset="0.417969"/><stop stop-opacity="1" stop-color="rgb(25.041199%, 71.842957%, 26.739502%)" offset="0.421875"/><stop stop-opacity="1" stop-color="rgb(25.378418%, 71.90094%, 26.708984%)" offset="0.425781"/><stop stop-opacity="1" stop-color="rgb(25.717163%, 71.960449%, 26.678467%)" offset="0.429688"/><stop stop-opacity="1" stop-color="rgb(26.055908%, 72.018433%, 26.647949%)" offset="0.433594"/><stop stop-opacity="1" stop-color="rgb(26.394653%, 72.077942%, 26.617432%)" offset="0.4375"/><stop stop-opacity="1" stop-color="rgb(26.731873%, 72.135925%, 26.585388%)" offset="0.441406"/><stop stop-opacity="1" stop-color="rgb(27.070618%, 72.195435%, 26.554871%)" offset="0.445312"/><stop stop-opacity="1" stop-color="rgb(27.407837%, 72.253418%, 26.524353%)" offset="0.449219"/><stop stop-opacity="1" stop-color="rgb(27.746582%, 72.311401%, 26.493835%)" offset="0.453125"/><stop stop-opacity="1" stop-color="rgb(28.085327%, 72.369385%, 26.463318%)" offset="0.457031"/><stop stop-opacity="1" stop-color="rgb(28.424072%, 72.428894%, 26.4328%)" offset="0.460937"/><stop stop-opacity="1" stop-color="rgb(28.761292%, 72.486877%, 26.402283%)" offset="0.464844"/><stop stop-opacity="1" stop-color="rgb(29.100037%, 72.546387%, 26.371765%)" offset="0.46875"/><stop stop-opacity="1" stop-color="rgb(29.438782%, 72.60437%, 26.341248%)" offset="0.472656"/><stop stop-opacity="1" stop-color="rgb(29.777527%, 72.663879%, 26.31073%)" offset="0.476562"/><stop stop-opacity="1" stop-color="rgb(30.114746%, 72.721863%, 26.280212%)" offset="0.480469"/><stop stop-opacity="1" stop-color="rgb(30.453491%, 72.781372%, 26.249695%)" offset="0.484375"/><stop stop-opacity="1" stop-color="rgb(30.79071%, 72.839355%, 26.219177%)" offset="0.488281"/><stop stop-opacity="1" stop-color="rgb(31.129456%, 72.898865%, 26.18866%)" offset="0.492188"/><stop stop-opacity="1" stop-color="rgb(31.468201%, 72.956848%, 26.158142%)" offset="0.496094"/><stop stop-opacity="1" stop-color="rgb(31.806946%, 73.016357%, 26.127625%)" offset="0.5"/><stop stop-opacity="1" stop-color="rgb(32.144165%, 73.074341%, 26.097107%)" offset="0.503906"/><stop stop-opacity="1" stop-color="rgb(32.48291%, 73.13385%, 26.066589%)" offset="0.507812"/><stop stop-opacity="1" stop-color="rgb(32.820129%, 73.191833%, 26.036072%)" offset="0.511719"/><stop stop-opacity="1" stop-color="rgb(33.158875%, 73.251343%, 26.005554%)" offset="0.515625"/><stop stop-opacity="1" stop-color="rgb(33.49762%, 73.309326%, 25.975037%)" offset="0.519531"/><stop stop-opacity="1" stop-color="rgb(33.836365%, 73.368835%, 25.944519%)" offset="0.523438"/><stop stop-opacity="1" stop-color="rgb(34.173584%, 73.426819%, 25.914001%)" offset="0.527344"/><stop stop-opacity="1" stop-color="rgb(34.512329%, 73.486328%, 25.883484%)" offset="0.53125"/><stop stop-opacity="1" stop-color="rgb(34.851074%, 73.544312%, 25.852966%)" offset="0.535156"/><stop stop-opacity="1" stop-color="rgb(35.189819%, 73.602295%, 25.822449%)" offset="0.539062"/><stop stop-opacity="1" stop-color="rgb(35.527039%, 73.660278%, 25.791931%)" offset="0.542969"/><stop stop-opacity="1" stop-color="rgb(35.865784%, 73.719788%, 25.761414%)" offset="0.546875"/><stop stop-opacity="1" stop-color="rgb(36.203003%, 73.777771%, 25.730896%)" offset="0.550781"/><stop stop-opacity="1" stop-color="rgb(36.541748%, 73.83728%, 25.700378%)" offset="0.554688"/><stop stop-opacity="1" stop-color="rgb(36.880493%, 73.895264%, 25.669861%)" offset="0.558594"/><stop stop-opacity="1" stop-color="rgb(37.219238%, 73.954773%, 25.639343%)" offset="0.5625"/><stop stop-opacity="1" stop-color="rgb(37.556458%, 74.012756%, 25.608826%)" offset="0.566406"/><stop stop-opacity="1" stop-color="rgb(37.895203%, 74.072266%, 25.578308%)" offset="0.570312"/><stop stop-opacity="1" stop-color="rgb(38.233948%, 74.130249%, 25.547791%)" offset="0.574219"/><stop stop-opacity="1" stop-color="rgb(38.572693%, 74.189758%, 25.517273%)" offset="0.578125"/><stop stop-opacity="1" stop-color="rgb(38.909912%, 74.247742%, 25.486755%)" offset="0.582031"/><stop stop-opacity="1" stop-color="rgb(39.248657%, 74.307251%, 25.456238%)" offset="0.585938"/><stop stop-opacity="1" stop-color="rgb(39.585876%, 74.365234%, 25.42572%)" offset="0.589844"/><stop stop-opacity="1" stop-color="rgb(39.924622%, 74.424744%, 25.395203%)" offset="0.59375"/><stop stop-opacity="1" stop-color="rgb(40.263367%, 74.482727%, 25.364685%)" offset="0.597656"/><stop stop-opacity="1" stop-color="rgb(40.602112%, 74.542236%, 25.334167%)" offset="0.601562"/><stop stop-opacity="1" stop-color="rgb(40.939331%, 74.60022%, 25.30365%)" offset="0.605469"/><stop stop-opacity="1" stop-color="rgb(41.278076%, 74.659729%, 25.273132%)" offset="0.609375"/><stop stop-opacity="1" stop-color="rgb(41.616821%, 74.717712%, 25.242615%)" offset="0.613281"/><stop stop-opacity="1" stop-color="rgb(41.955566%, 74.777222%, 25.212097%)" offset="0.617188"/><stop stop-opacity="1" stop-color="rgb(42.292786%, 74.835205%, 25.18158%)" offset="0.621094"/><stop stop-opacity="1" stop-color="rgb(42.631531%, 74.893188%, 25.151062%)" offset="0.625"/><stop stop-opacity="1" stop-color="rgb(42.96875%, 74.951172%, 25.120544%)" offset="0.628906"/><stop stop-opacity="1" stop-color="rgb(43.307495%, 75.010681%, 25.090027%)" offset="0.632812"/><stop stop-opacity="1" stop-color="rgb(43.64624%, 75.068665%, 25.059509%)" offset="0.636719"/><stop stop-opacity="1" stop-color="rgb(43.984985%, 75.128174%, 25.028992%)" offset="0.640625"/><stop stop-opacity="1" stop-color="rgb(44.322205%, 75.186157%, 24.998474%)" offset="0.644531"/><stop stop-opacity="1" stop-color="rgb(44.66095%, 75.245667%, 24.967957%)" offset="0.648438"/><stop stop-opacity="1" stop-color="rgb(44.999695%, 75.30365%, 24.937439%)" offset="0.652344"/><stop stop-opacity="1" stop-color="rgb(45.33844%, 75.363159%, 24.906921%)" offset="0.65625"/><stop stop-opacity="1" stop-color="rgb(45.675659%, 75.421143%, 24.876404%)" offset="0.660156"/><stop stop-opacity="1" stop-color="rgb(46.014404%, 75.480652%, 24.845886%)" offset="0.664062"/><stop stop-opacity="1" stop-color="rgb(46.351624%, 75.538635%, 24.815369%)" offset="0.667969"/><stop stop-opacity="1" stop-color="rgb(46.690369%, 75.598145%, 24.784851%)" offset="0.671875"/><stop stop-opacity="1" stop-color="rgb(47.029114%, 75.656128%, 24.754333%)" offset="0.675781"/><stop stop-opacity="1" stop-color="rgb(47.367859%, 75.715637%, 24.723816%)" offset="0.679688"/><stop stop-opacity="1" stop-color="rgb(47.705078%, 75.773621%, 24.693298%)" offset="0.683594"/><stop stop-opacity="1" stop-color="rgb(48.043823%, 75.83313%, 24.662781%)" offset="0.6875"/><stop stop-opacity="1" stop-color="rgb(48.381042%, 75.891113%, 24.632263%)" offset="0.691406"/><stop stop-opacity="1" stop-color="rgb(48.719788%, 75.950623%, 24.601746%)" offset="0.695312"/><stop stop-opacity="1" stop-color="rgb(49.058533%, 76.008606%, 24.571228%)" offset="0.699219"/><stop stop-opacity="1" stop-color="rgb(49.397278%, 76.068115%, 24.54071%)" offset="0.703125"/><stop stop-opacity="1" stop-color="rgb(49.734497%, 76.126099%, 24.510193%)" offset="0.707031"/><stop stop-opacity="1" stop-color="rgb(50.073242%, 76.184082%, 24.479675%)" offset="0.710938"/><stop stop-opacity="1" stop-color="rgb(50.411987%, 76.242065%, 24.449158%)" offset="0.714844"/><stop stop-opacity="1" stop-color="rgb(50.750732%, 76.301575%, 24.41864%)" offset="0.71875"/><stop stop-opacity="1" stop-color="rgb(51.087952%, 76.359558%, 24.388123%)" offset="0.722656"/><stop stop-opacity="1" stop-color="rgb(51.426697%, 76.419067%, 24.357605%)" offset="0.726562"/><stop stop-opacity="1" stop-color="rgb(51.763916%, 76.477051%, 24.327087%)" offset="0.730469"/><stop stop-opacity="1" stop-color="rgb(52.102661%, 76.53656%, 24.29657%)" offset="0.734375"/><stop stop-opacity="1" stop-color="rgb(52.441406%, 76.594543%, 24.266052%)" offset="0.738281"/><stop stop-opacity="1" stop-color="rgb(52.780151%, 76.654053%, 24.235535%)" offset="0.742188"/><stop stop-opacity="1" stop-color="rgb(53.117371%, 76.712036%, 24.205017%)" offset="0.746094"/><stop stop-opacity="1" stop-color="rgb(53.456116%, 76.771545%, 24.1745%)" offset="0.75"/><stop stop-opacity="1" stop-color="rgb(53.794861%, 76.829529%, 24.143982%)" offset="0.753906"/><stop stop-opacity="1" stop-color="rgb(54.133606%, 76.889038%, 24.113464%)" offset="0.757812"/><stop stop-opacity="1" stop-color="rgb(54.470825%, 76.947021%, 24.082947%)" offset="0.761719"/><stop stop-opacity="1" stop-color="rgb(54.80957%, 77.006531%, 24.052429%)" offset="0.765625"/><stop stop-opacity="1" stop-color="rgb(55.14679%, 77.064514%, 24.021912%)" offset="0.769531"/><stop stop-opacity="1" stop-color="rgb(55.485535%, 77.124023%, 23.991394%)" offset="0.773438"/><stop stop-opacity="1" stop-color="rgb(55.82428%, 77.182007%, 23.960876%)" offset="0.777344"/><stop stop-opacity="1" stop-color="rgb(56.163025%, 77.241516%, 23.930359%)" offset="0.78125"/><stop stop-opacity="1" stop-color="rgb(56.330872%, 77.270508%, 23.9151%)" offset="0.8125"/><stop stop-opacity="1" stop-color="rgb(56.498718%, 77.2995%, 23.899841%)" offset="0.875"/><stop stop-opacity="1" stop-color="rgb(56.498718%, 77.2995%, 23.899841%)" offset="0.899487"/><stop stop-opacity="1" stop-color="rgb(56.498718%, 77.2995%, 23.899841%)" offset="1"/></linearGradient></defs><path fill="#ee1e23" d="M 24.613281 37.539062 C 23.699219 37.628906 22.785156 37.722656 21.78125 37.8125 C 21.78125 37.8125 9.984375 32.601562 10.074219 21.535156 C 10.167969 12.941406 14.191406 10.382812 14.191406 10.382812 C 14.191406 10.382812 17.207031 11.660156 19.492188 14.039062 C 21.414062 16.050781 22.511719 18.609375 22.511719 18.609375 C 22.511719 18.609375 23.609375 12.574219 29.371094 7.730469 C 37.78125 0.046875 46.925781 0.78125 46.925781 0.78125 C 46.925781 0.78125 48.847656 5.167969 48.9375 11.203125 C 49.027344 25.101562 40.523438 35.253906 27.265625 37.171875 C 26.351562 37.355469 25.4375 37.449219 24.613281 37.539062 Z M 24.613281 37.539062 " fill-opacity="1" fill-rule="evenodd"/><g clip-path="url(#3cc3324bf1)"><g clip-path="url(#3d8e972754)"><path fill="url(#c8362105eb)" d="M 19.949219 37.082031 L 19.949219 7.089844 L 44 7.089844 L 44 37.082031 Z M 19.949219 37.082031 " fill-rule="nonzero"/></g></g><g clip-path="url(#7cac412976)"><g clip-path="url(#f92f074b3f)"><path fill="url(#24ccc59390)" d="M 12.816406 37.082031 L 12.816406 15.136719 L 21.78125 15.136719 L 21.78125 37.082031 Z M 12.816406 37.082031 " fill-rule="nonzero"/></g></g><path fill="#ee1e23" d="M 75 12.484375 C 74.90625 12.394531 74.816406 12.394531 74.632812 12.300781 C 74.449219 12.210938 74.265625 12.210938 74.082031 12.210938 C 73.808594 12.210938 73.535156 12.210938 73.167969 12.210938 C 72.804688 12.210938 72.527344 12.210938 72.253906 12.210938 C 71.980469 12.210938 71.796875 12.300781 71.707031 12.300781 C 71.523438 12.394531 71.433594 12.394531 71.433594 12.484375 C 71.433594 12.484375 71.433594 12.484375 71.433594 12.574219 L 70.335938 17.605469 C 70.335938 17.695312 70.335938 17.695312 70.425781 17.789062 C 70.425781 17.878906 70.515625 17.878906 70.609375 17.878906 C 70.699219 17.878906 70.792969 17.96875 70.882812 17.96875 C 70.976562 17.96875 71.15625 17.96875 71.339844 17.96875 C 71.523438 17.96875 71.613281 17.96875 71.707031 17.96875 C 71.796875 17.96875 71.890625 17.96875 71.980469 17.878906 C 72.070312 17.878906 72.070312 17.789062 72.164062 17.695312 L 75.273438 12.667969 C 75.089844 12.667969 75 12.574219 75 12.484375 Z M 106.179688 19.523438 C 106.269531 19.34375 106.363281 19.066406 106.453125 18.792969 C 106.546875 18.519531 106.546875 18.246094 106.636719 18.0625 C 106.636719 17.789062 106.726562 17.605469 106.726562 17.421875 C 106.726562 17.238281 106.726562 17.054688 106.726562 16.964844 C 106.726562 16.597656 106.636719 16.324219 106.453125 16.234375 L 95.113281 16.234375 C 94.65625 16.234375 94.292969 16.234375 94.019531 16.324219 C 93.742188 16.417969 93.5625 16.417969 93.378906 16.507812 C 93.285156 16.597656 93.195312 16.597656 93.195312 16.691406 L 92.554688 20.257812 L 92.097656 22.726562 L 91.367188 26.75 L 90.816406 29.402344 L 90.175781 33.058594 C 90.175781 33.148438 90.269531 33.242188 90.359375 33.332031 C 90.453125 33.425781 90.632812 33.425781 90.910156 33.515625 C 91.183594 33.605469 91.550781 33.605469 91.914062 33.605469 C 92.371094 33.605469 92.921875 33.605469 93.5625 33.605469 L 103.160156 33.605469 C 103.253906 33.605469 103.34375 33.515625 103.4375 33.425781 C 103.527344 33.242188 103.710938 33.058594 103.800781 32.875 C 103.894531 32.691406 103.984375 32.417969 104.078125 32.144531 C 104.167969 31.871094 104.167969 31.59375 104.257812 31.320312 C 104.257812 31.046875 104.351562 30.863281 104.351562 30.589844 C 104.351562 30.40625 104.351562 30.222656 104.351562 30.132812 C 104.351562 29.582031 104.167969 29.308594 103.894531 29.308594 L 96.761719 29.308594 L 97.21875 26.65625 L 103.160156 26.65625 C 103.253906 26.65625 103.34375 26.566406 103.4375 26.476562 C 103.527344 26.292969 103.710938 26.109375 103.800781 25.925781 C 103.894531 25.742188 103.984375 25.46875 104.078125 25.195312 C 104.167969 24.921875 104.167969 24.644531 104.257812 24.464844 C 104.257812 24.1875 104.351562 24.003906 104.351562 23.824219 C 104.351562 23.640625 104.351562 23.457031 104.351562 23.457031 C 104.351562 23 104.257812 22.816406 103.984375 22.726562 L 98.042969 22.726562 L 98.5 20.257812 L 105.628906 20.257812 C 105.722656 20.257812 105.90625 20.164062 105.996094 20.074219 C 105.996094 19.890625 106.089844 19.707031 106.179688 19.523438 Z M 82.039062 33.058594 L 78.929688 25.46875 L 77.558594 33.148438 C 77.558594 33.242188 77.46875 33.242188 77.375 33.332031 C 77.285156 33.425781 77.101562 33.425781 76.828125 33.515625 C 76.550781 33.605469 76.277344 33.605469 75.914062 33.605469 C 75.546875 33.605469 75.089844 33.605469 74.539062 33.605469 C 73.992188 33.605469 73.535156 33.605469 73.167969 33.605469 C 72.804688 33.605469 72.527344 33.515625 72.347656 33.515625 C 72.164062 33.425781 71.980469 33.425781 71.890625 33.332031 C 71.796875 33.242188 71.796875 33.148438 71.796875 33.058594 L 74.816406 16.597656 C 74.816406 16.597656 74.816406 16.597656 74.816406 16.507812 C 74.90625 16.417969 75.089844 16.417969 75.273438 16.324219 C 75.457031 16.234375 75.730469 16.234375 76.09375 16.234375 C 76.460938 16.234375 76.917969 16.234375 77.46875 16.234375 C 78.015625 16.234375 78.472656 16.234375 78.839844 16.234375 C 79.203125 16.234375 79.480469 16.324219 79.753906 16.324219 C 80.027344 16.417969 80.117188 16.417969 80.300781 16.507812 C 80.394531 16.597656 80.484375 16.691406 80.484375 16.78125 L 79.386719 22.816406 L 85.332031 16.597656 L 85.421875 16.507812 C 85.605469 16.417969 85.789062 16.417969 86.0625 16.324219 C 86.335938 16.234375 86.703125 16.234375 87.066406 16.234375 C 87.433594 16.234375 87.984375 16.234375 88.621094 16.234375 C 89.261719 16.234375 89.71875 16.234375 90.085938 16.234375 C 90.453125 16.234375 90.726562 16.324219 91 16.324219 C 91.183594 16.417969 91.367188 16.417969 91.457031 16.507812 C 91.550781 16.597656 91.550781 16.597656 91.457031 16.691406 L 84.875 23.730469 L 88.988281 33.058594 C 88.988281 33.148438 88.898438 33.242188 88.714844 33.332031 C 88.621094 33.425781 88.347656 33.425781 88.074219 33.515625 C 87.800781 33.605469 87.433594 33.605469 86.976562 33.605469 C 86.519531 33.605469 85.972656 33.605469 85.332031 33.605469 C 84.691406 33.605469 84.050781 33.605469 83.683594 33.605469 C 83.226562 33.605469 82.953125 33.515625 82.679688 33.515625 C 82.40625 33.425781 82.222656 33.425781 82.128906 33.332031 C 82.128906 33.332031 82.039062 33.332031 82.039062 33.242188 Z M 126.664062 16.597656 C 126.570312 16.507812 126.386719 16.507812 126.203125 16.417969 C 126.023438 16.324219 125.746094 16.324219 125.382812 16.324219 C 125.199219 16.324219 125.015625 16.324219 124.832031 16.324219 L 123.097656 16.324219 C 122.914062 16.324219 122.730469 16.324219 122.546875 16.324219 C 122.179688 16.324219 121.90625 16.417969 121.632812 16.417969 C 121.449219 16.417969 121.359375 16.507812 121.175781 16.507812 L 113.675781 25.378906 L 115.230469 16.691406 C 115.230469 16.597656 115.230469 16.507812 115.140625 16.507812 C 115.050781 16.417969 114.957031 16.417969 114.683594 16.324219 C 114.5 16.234375 114.226562 16.234375 113.859375 16.234375 C 113.675781 16.234375 113.585938 16.234375 113.402344 16.234375 L 111.664062 16.234375 C 111.484375 16.234375 111.300781 16.234375 111.207031 16.234375 C 110.84375 16.234375 110.570312 16.324219 110.292969 16.324219 C 110.113281 16.417969 109.929688 16.417969 109.835938 16.507812 C 109.835938 16.507812 109.746094 16.507812 109.746094 16.597656 L 106.636719 33.148438 C 106.636719 33.148438 106.636719 33.242188 106.726562 33.242188 C 106.820312 33.332031 107.003906 33.332031 107.183594 33.425781 C 107.367188 33.515625 107.640625 33.515625 108.007812 33.515625 C 108.375 33.515625 108.832031 33.515625 109.378906 33.515625 C 109.929688 33.515625 110.386719 33.515625 110.75 33.515625 C 111.117188 33.515625 111.390625 33.425781 111.664062 33.425781 C 111.847656 33.425781 112.03125 33.332031 112.125 33.242188 L 112.304688 32.96875 L 119.53125 24.464844 L 117.976562 33.148438 C 117.976562 33.148438 117.976562 33.242188 118.066406 33.242188 C 118.160156 33.332031 118.25 33.332031 118.523438 33.425781 C 118.707031 33.515625 118.980469 33.515625 119.347656 33.515625 C 119.710938 33.515625 120.167969 33.515625 120.71875 33.515625 C 121.265625 33.515625 121.722656 33.515625 122.089844 33.515625 C 122.457031 33.515625 122.730469 33.425781 123.003906 33.425781 C 123.1875 33.332031 123.371094 33.332031 123.460938 33.242188 C 123.554688 33.242188 123.554688 33.148438 123.554688 33.148438 L 126.570312 16.691406 C 126.753906 16.691406 126.664062 16.597656 126.664062 16.597656 Z M 63.933594 24.921875 C 63.660156 26.382812 63.019531 27.570312 62.289062 28.488281 C 61.464844 29.402344 60.550781 29.765625 59.453125 29.765625 C 58.171875 29.675781 57.351562 29.125 57.074219 27.9375 C 56.800781 27.023438 56.800781 25.925781 57.074219 24.554688 C 57.351562 23.273438 57.808594 22.175781 58.449219 21.355469 C 59.269531 20.347656 60.277344 19.890625 61.464844 19.890625 C 62.652344 19.980469 63.386719 20.53125 63.84375 21.535156 C 64.117188 22.453125 64.207031 23.640625 63.933594 24.921875 Z M 68.6875 18.886719 C 69.878906 20.621094 70.152344 22.726562 69.601562 25.195312 C 68.964844 28.027344 67.683594 30.316406 65.488281 31.871094 C 63.476562 33.425781 61.097656 34.0625 58.449219 33.972656 C 52.960938 33.699219 50.035156 29.859375 51.222656 24.28125 C 51.773438 21.535156 53.144531 19.433594 55.15625 17.878906 C 57.167969 16.324219 59.636719 15.59375 62.378906 15.777344 C 65.304688 15.867188 67.410156 16.875 68.6875 18.886719 Z M 121.722656 12.484375 C 121.816406 12.574219 121.816406 12.574219 121.816406 12.667969 L 118.707031 17.695312 C 118.617188 17.789062 118.523438 17.878906 118.523438 17.878906 C 118.433594 17.878906 118.339844 17.96875 118.25 17.96875 C 118.160156 17.96875 117.976562 17.96875 117.882812 17.96875 C 117.699219 17.96875 117.609375 17.96875 117.425781 17.96875 C 117.335938 17.96875 117.242188 17.96875 117.152344 17.878906 C 117.0625 17.878906 117.0625 17.789062 116.96875 17.789062 C 116.96875 17.695312 116.878906 17.695312 116.878906 17.605469 L 117.976562 12.574219 C 117.976562 12.574219 117.976562 12.574219 117.976562 12.484375 C 118.066406 12.394531 118.160156 12.394531 118.25 12.300781 C 118.433594 12.210938 118.617188 12.210938 118.796875 12.210938 C 119.074219 12.210938 119.347656 12.210938 119.710938 12.210938 C 120.078125 12.210938 120.445312 12.210938 120.628906 12.210938 C 120.902344 12.210938 121.085938 12.300781 121.175781 12.300781 C 121.542969 12.394531 121.632812 12.484375 121.722656 12.484375 Z M 121.722656 12.484375 " fill-opacity="1" fill-rule="evenodd"/></svg>