<svg width="41" height="40" viewBox="0 0 41 40" fill="none" xmlns="http://www.w3.org/2000/svg">
<g clip-path="url(#clip0_63_752)">
<path d="M38.5114 9.43014C38.5114 9.27818 38.4776 9.12621 38.4101 8.98269C38.275 8.69565 38.0133 8.50148 37.7263 8.44238L20.5291 0.101309C20.2505 -0.0337695 19.9213 -0.0337695 19.6427 0.101309L2.27672 8.51836C1.93902 8.67877 1.71952 9.01646 1.70264 9.39637V9.40481C1.70264 9.41325 1.70264 9.4217 1.70264 9.43858V30.5614C1.70264 30.9498 1.92214 31.3043 2.27672 31.4732L19.6427 39.8903C19.6511 39.8903 19.6511 39.8903 19.6596 39.8987C19.6849 39.9071 19.7102 39.9156 19.7356 39.9325C19.744 39.9325 19.7524 39.9409 19.7693 39.9409C19.7947 39.9493 19.82 39.9578 19.8453 39.9662C19.8538 39.9662 19.8622 39.9747 19.8706 39.9747C19.896 39.9831 19.9297 39.9831 19.9551 39.9916C19.9635 39.9916 19.9719 39.9916 19.9804 39.9916C20.0142 39.9916 20.0564 40 20.0901 40C20.1239 40 20.1661 40 20.1999 39.9916C20.2083 39.9916 20.2168 39.9916 20.2252 39.9916C20.2505 39.9916 20.2843 39.9831 20.3096 39.9747C20.3181 39.9747 20.3265 39.9662 20.335 39.9662C20.3603 39.9578 20.3856 39.9493 20.4109 39.9409C20.4194 39.9409 20.4278 39.9325 20.4447 39.9325C20.47 39.924 20.4954 39.9156 20.5207 39.8987C20.5291 39.8987 20.5291 39.8987 20.5376 39.8903L37.9542 31.4479C38.3004 31.279 38.5283 30.9244 38.5283 30.5361V9.45547C38.5114 9.44702 38.5114 9.43858 38.5114 9.43014ZM20.0817 2.13592L35.1429 9.43858L29.5963 12.1317L14.5351 4.82904L20.0817 2.13592ZM20.0817 16.7412L5.02049 9.43858L12.2134 5.95188L27.2746 13.2545L20.0817 16.7412ZM3.72881 11.068L19.0686 18.5057V37.3575L3.72881 29.9198V11.068ZM21.0948 37.3575V18.5057L28.2961 15.0106V19.9409C28.2961 20.4981 28.752 20.954 29.3092 20.954C29.8664 20.954 30.3223 20.4981 30.3223 19.9409V14.0228L36.4852 11.0342V29.886L21.0948 37.3575Z" fill="#000066"/>
</g>
<defs>
<clipPath id="clip0_63_752">
<rect width="40" height="40" fill="white" transform="translate(0.115479)"/>
</clipPath>
</defs>
</svg>
