<svg width="41" height="40" viewBox="0 0 41 40" fill="none" xmlns="http://www.w3.org/2000/svg">
<g clip-path="url(#clip0_63_724)">
<path d="M36.4289 34.6678L34.1271 8.72697C34.0857 8.21362 33.6551 7.82447 33.1335 7.82447H28.2815C28.2732 3.51066 24.7626 0 20.4488 0C16.135 0 12.6243 3.51066 12.616 7.82447H7.76401C7.25066 7.82447 6.82011 8.21362 6.77043 8.72697L4.46863 34.6678C4.46863 34.7009 4.46863 34.7257 4.46863 34.7589C4.46863 37.6485 7.12646 40 10.3887 40H30.5088C33.7711 40 36.4289 37.6485 36.4289 34.7589C36.4289 34.7257 36.4289 34.7009 36.4289 34.6678ZM20.4488 1.98717C23.6696 1.98717 26.2861 4.6036 26.2943 7.82447H14.6032C14.6115 4.6036 17.2279 1.98717 20.4488 1.98717ZM30.5088 38.0046H10.3887C8.23596 38.0046 6.48063 36.5721 6.45579 34.792L8.6748 9.81163H12.616V13.2975C12.616 13.8439 13.0631 14.291 13.6096 14.291C14.1561 14.291 14.6032 13.8439 14.6032 13.2975V9.81163H26.2943V13.2975C26.2943 13.8439 26.7415 14.291 27.2879 14.291C27.8344 14.291 28.2815 13.8439 28.2815 13.2975V9.81163H32.2227L34.4417 34.8002C34.4169 36.5721 32.6616 38.0046 30.5088 38.0046Z" fill="#000066"/>
<path d="M24.5804 20.6831L18.7182 26.5453L16.3254 24.1524C15.9362 23.7632 15.3069 23.7632 14.9178 24.1524C14.5286 24.5415 14.5286 25.1708 14.9178 25.56L18.0144 28.6566C18.2049 28.8471 18.4616 28.9464 18.7182 28.9464C18.9749 28.9464 19.2233 28.8471 19.422 28.6566L25.9879 22.0907C26.3771 21.7015 26.3771 21.0723 25.9879 20.6831C25.5988 20.3022 24.9695 20.3022 24.5804 20.6831Z" fill="#000066"/>
</g>
<defs>
<clipPath id="clip0_63_724">
<rect width="40" height="40" fill="white" transform="translate(0.448792)"/>
</clipPath>
</defs>
</svg>
