<svg xmlns="http://www.w3.org/2000/svg" xmlns:xlink="http://www.w3.org/1999/xlink" width="180" zoomAndPan="magnify" viewBox="0 0 135 30.000001" height="40" preserveAspectRatio="xMidYMid meet" version="1.0"><defs><clipPath id="9cbb35db78"><path d="M 2.175781 1 L 23 1 L 23 28.4375 L 2.175781 28.4375 Z M 2.175781 1 " clip-rule="nonzero"/></clipPath><clipPath id="ff5fea1573"><path d="M 22.128906 2.164062 C 22.128906 1.855469 21.882812 1.601562 21.582031 1.601562 L 2.917969 1.601562 C 2.613281 1.601562 2.367188 1.855469 2.367188 2.164062 L 2.367188 19.792969 C 2.367188 19.957031 2.4375 20.113281 2.558594 20.222656 L 11.804688 28.304688 C 12.007812 28.480469 12.308594 28.484375 12.515625 28.308594 L 21.933594 20.222656 C 22.058594 20.113281 22.128906 19.957031 22.128906 19.789062 Z M 19.949219 4.4375 C 19.949219 4.128906 19.703125 3.875 19.398438 3.875 L 5.097656 3.875 C 4.796875 3.875 4.550781 4.128906 4.550781 4.4375 L 4.550781 8.648438 C 4.550781 8.960938 4.796875 9.210938 5.097656 9.210938 L 9.554688 9.210938 C 9.699219 9.210938 9.84375 9.273438 9.945312 9.378906 L 11.78125 11.308594 C 12 11.535156 12.351562 11.535156 12.570312 11.308594 L 14.40625 9.378906 C 14.507812 9.273438 14.652344 9.210938 14.796875 9.210938 L 19.398438 9.210938 C 19.703125 9.210938 19.949219 8.960938 19.949219 8.648438 Z M 15.058594 17.839844 C 15.058594 17.335938 14.460938 17.085938 14.117188 17.445312 L 12.550781 19.089844 C 12.335938 19.316406 11.980469 19.316406 11.765625 19.089844 L 10.199219 17.445312 C 9.855469 17.085938 9.257812 17.335938 9.257812 17.839844 L 9.257812 23.085938 C 9.257812 23.238281 9.320312 23.386719 9.429688 23.492188 L 11.78125 25.785156 C 11.992188 25.988281 12.324219 25.992188 12.535156 25.785156 L 14.886719 23.527344 C 14.996094 23.421875 15.058594 23.273438 15.058594 23.117188 Z M 15.058594 17.839844 " clip-rule="evenodd"/></clipPath><radialGradient gradientTransform="matrix(-0.624583, -0.954132, 0.714897, -0.477353, 16.781614, 23.571954)" gradientUnits="userSpaceOnUse" r="24.819145" cx="0" id="735c24d8c3" cy="0" fx="0" fy="0"><stop stop-opacity="1" stop-color="rgb(59.318542%, 4.283142%, 7.072449%)" offset="0"/><stop stop-opacity="1" stop-color="rgb(59.616089%, 4.240417%, 7.006836%)" offset="0.0078125"/><stop stop-opacity="1" stop-color="rgb(59.976196%, 4.190063%, 6.929016%)" offset="0.0195312"/><stop stop-opacity="1" stop-color="rgb(60.334778%, 4.138184%, 6.84967%)" offset="0.03125"/><stop stop-opacity="1" stop-color="rgb(60.693359%, 4.08783%, 6.771851%)" offset="0.0429688"/><stop stop-opacity="1" stop-color="rgb(61.051941%, 4.037476%, 6.692505%)" offset="0.0546875"/><stop stop-opacity="1" stop-color="rgb(61.410522%, 3.987122%, 6.614685%)" offset="0.0664062"/><stop stop-opacity="1" stop-color="rgb(61.769104%, 3.936768%, 6.536865%)" offset="0.078125"/><stop stop-opacity="1" stop-color="rgb(62.127686%, 3.886414%, 6.45752%)" offset="0.0898438"/><stop stop-opacity="1" stop-color="rgb(62.486267%, 3.83606%, 6.3797%)" offset="0.101562"/><stop stop-opacity="1" stop-color="rgb(62.844849%, 3.785706%, 6.300354%)" offset="0.113281"/><stop stop-opacity="1" stop-color="rgb(63.20343%, 3.735352%, 6.222534%)" offset="0.125"/><stop stop-opacity="1" stop-color="rgb(63.562012%, 3.684998%, 6.143188%)" offset="0.136719"/><stop stop-opacity="1" stop-color="rgb(63.920593%, 3.634644%, 6.065369%)" offset="0.148438"/><stop stop-opacity="1" stop-color="rgb(64.279175%, 3.58429%, 5.986023%)" offset="0.160156"/><stop stop-opacity="1" stop-color="rgb(64.637756%, 3.533936%, 5.908203%)" offset="0.171875"/><stop stop-opacity="1" stop-color="rgb(64.996338%, 3.483582%, 5.828857%)" offset="0.183594"/><stop stop-opacity="1" stop-color="rgb(65.354919%, 3.433228%, 5.751038%)" offset="0.195312"/><stop stop-opacity="1" stop-color="rgb(65.713501%, 3.382874%, 5.673218%)" offset="0.207031"/><stop stop-opacity="1" stop-color="rgb(66.072083%, 3.33252%, 5.593872%)" offset="0.21875"/><stop stop-opacity="1" stop-color="rgb(66.430664%, 3.282166%, 5.516052%)" offset="0.230469"/><stop stop-opacity="1" stop-color="rgb(66.789246%, 3.231812%, 5.436707%)" offset="0.242188"/><stop stop-opacity="1" stop-color="rgb(67.088318%, 3.190613%, 5.371094%)" offset="0.253906"/><stop stop-opacity="1" stop-color="rgb(67.326355%, 3.157043%, 5.319214%)" offset="0.261719"/><stop stop-opacity="1" stop-color="rgb(67.565918%, 3.123474%, 5.267334%)" offset="0.269531"/><stop stop-opacity="1" stop-color="rgb(67.805481%, 3.089905%, 5.213928%)" offset="0.277344"/><stop stop-opacity="1" stop-color="rgb(68.043518%, 3.056335%, 5.162048%)" offset="0.285156"/><stop stop-opacity="1" stop-color="rgb(68.283081%, 3.022766%, 5.110168%)" offset="0.292969"/><stop stop-opacity="1" stop-color="rgb(68.522644%, 2.989197%, 5.058289%)" offset="0.300781"/><stop stop-opacity="1" stop-color="rgb(68.760681%, 2.955627%, 5.004883%)" offset="0.308594"/><stop stop-opacity="1" stop-color="rgb(69.000244%, 2.922058%, 4.953003%)" offset="0.316406"/><stop stop-opacity="1" stop-color="rgb(69.239807%, 2.888489%, 4.901123%)" offset="0.324219"/><stop stop-opacity="1" stop-color="rgb(69.477844%, 2.854919%, 4.847717%)" offset="0.332031"/><stop stop-opacity="1" stop-color="rgb(69.717407%, 2.82135%, 4.795837%)" offset="0.339844"/><stop stop-opacity="1" stop-color="rgb(69.95697%, 2.787781%, 4.743958%)" offset="0.347656"/><stop stop-opacity="1" stop-color="rgb(70.195007%, 2.754211%, 4.690552%)" offset="0.355469"/><stop stop-opacity="1" stop-color="rgb(70.43457%, 2.720642%, 4.638672%)" offset="0.363281"/><stop stop-opacity="1" stop-color="rgb(70.674133%, 2.687073%, 4.586792%)" offset="0.371094"/><stop stop-opacity="1" stop-color="rgb(70.91217%, 2.653503%, 4.534912%)" offset="0.378906"/><stop stop-opacity="1" stop-color="rgb(71.151733%, 2.619934%, 4.481506%)" offset="0.386719"/><stop stop-opacity="1" stop-color="rgb(71.391296%, 2.586365%, 4.429626%)" offset="0.394531"/><stop stop-opacity="1" stop-color="rgb(71.629333%, 2.552795%, 4.377747%)" offset="0.402344"/><stop stop-opacity="1" stop-color="rgb(71.868896%, 2.519226%, 4.324341%)" offset="0.410156"/><stop stop-opacity="1" stop-color="rgb(72.108459%, 2.485657%, 4.272461%)" offset="0.417969"/><stop stop-opacity="1" stop-color="rgb(72.346497%, 2.452087%, 4.220581%)" offset="0.425781"/><stop stop-opacity="1" stop-color="rgb(72.58606%, 2.418518%, 4.167175%)" offset="0.433594"/><stop stop-opacity="1" stop-color="rgb(72.825623%, 2.384949%, 4.115295%)" offset="0.441406"/><stop stop-opacity="1" stop-color="rgb(73.06366%, 2.351379%, 4.063416%)" offset="0.449219"/><stop stop-opacity="1" stop-color="rgb(73.303223%, 2.31781%, 4.01001%)" offset="0.457031"/><stop stop-opacity="1" stop-color="rgb(73.542786%, 2.284241%, 3.95813%)" offset="0.464844"/><stop stop-opacity="1" stop-color="rgb(73.780823%, 2.250671%, 3.90625%)" offset="0.472656"/><stop stop-opacity="1" stop-color="rgb(74.020386%, 2.217102%, 3.85437%)" offset="0.480469"/><stop stop-opacity="1" stop-color="rgb(74.259949%, 2.183533%, 3.800964%)" offset="0.488281"/><stop stop-opacity="1" stop-color="rgb(74.497986%, 2.149963%, 3.749084%)" offset="0.496094"/><stop stop-opacity="1" stop-color="rgb(74.797058%, 2.107239%, 3.683472%)" offset="0.503906"/><stop stop-opacity="1" stop-color="rgb(75.15564%, 2.055359%, 3.604126%)" offset="0.515625"/><stop stop-opacity="1" stop-color="rgb(75.514221%, 2.005005%, 3.526306%)" offset="0.527344"/><stop stop-opacity="1" stop-color="rgb(75.872803%, 1.954651%, 3.448486%)" offset="0.539062"/><stop stop-opacity="1" stop-color="rgb(76.231384%, 1.904297%, 3.369141%)" offset="0.550781"/><stop stop-opacity="1" stop-color="rgb(76.589966%, 1.853943%, 3.291321%)" offset="0.5625"/><stop stop-opacity="1" stop-color="rgb(76.948547%, 1.803589%, 3.211975%)" offset="0.574219"/><stop stop-opacity="1" stop-color="rgb(77.307129%, 1.753235%, 3.134155%)" offset="0.585938"/><stop stop-opacity="1" stop-color="rgb(77.66571%, 1.702881%, 3.05481%)" offset="0.597656"/><stop stop-opacity="1" stop-color="rgb(78.024292%, 1.652527%, 2.97699%)" offset="0.609375"/><stop stop-opacity="1" stop-color="rgb(78.382874%, 1.602173%, 2.897644%)" offset="0.621094"/><stop stop-opacity="1" stop-color="rgb(78.681946%, 1.560974%, 2.833557%)" offset="0.632812"/><stop stop-opacity="1" stop-color="rgb(78.921509%, 1.527405%, 2.780151%)" offset="0.640625"/><stop stop-opacity="1" stop-color="rgb(79.161072%, 1.493835%, 2.728271%)" offset="0.648438"/><stop stop-opacity="1" stop-color="rgb(79.399109%, 1.460266%, 2.676392%)" offset="0.65625"/><stop stop-opacity="1" stop-color="rgb(79.638672%, 1.426697%, 2.622986%)" offset="0.664062"/><stop stop-opacity="1" stop-color="rgb(79.878235%, 1.393127%, 2.571106%)" offset="0.671875"/><stop stop-opacity="1" stop-color="rgb(80.116272%, 1.359558%, 2.519226%)" offset="0.679688"/><stop stop-opacity="1" stop-color="rgb(80.355835%, 1.325989%, 2.467346%)" offset="0.6875"/><stop stop-opacity="1" stop-color="rgb(80.595398%, 1.292419%, 2.41394%)" offset="0.695312"/><stop stop-opacity="1" stop-color="rgb(80.833435%, 1.25885%, 2.362061%)" offset="0.703125"/><stop stop-opacity="1" stop-color="rgb(81.072998%, 1.225281%, 2.310181%)" offset="0.710938"/><stop stop-opacity="1" stop-color="rgb(81.312561%, 1.191711%, 2.256775%)" offset="0.71875"/><stop stop-opacity="1" stop-color="rgb(81.550598%, 1.158142%, 2.204895%)" offset="0.726562"/><stop stop-opacity="1" stop-color="rgb(81.790161%, 1.124573%, 2.153015%)" offset="0.734375"/><stop stop-opacity="1" stop-color="rgb(82.029724%, 1.091003%, 2.099609%)" offset="0.742188"/><stop stop-opacity="1" stop-color="rgb(82.267761%, 1.057434%, 2.047729%)" offset="0.75"/><stop stop-opacity="1" stop-color="rgb(82.566833%, 1.014709%, 1.982117%)" offset="0.757812"/><stop stop-opacity="1" stop-color="rgb(82.925415%, 0.964355%, 1.904297%)" offset="0.769531"/><stop stop-opacity="1" stop-color="rgb(83.283997%, 0.914001%, 1.824951%)" offset="0.78125"/><stop stop-opacity="1" stop-color="rgb(83.642578%, 0.863647%, 1.747131%)" offset="0.792969"/><stop stop-opacity="1" stop-color="rgb(84.00116%, 0.813293%, 1.667786%)" offset="0.804688"/><stop stop-opacity="1" stop-color="rgb(84.300232%, 0.772095%, 1.602173%)" offset="0.816406"/><stop stop-opacity="1" stop-color="rgb(84.539795%, 0.738525%, 1.550293%)" offset="0.824219"/><stop stop-opacity="1" stop-color="rgb(84.777832%, 0.704956%, 1.498413%)" offset="0.832031"/><stop stop-opacity="1" stop-color="rgb(85.017395%, 0.671387%, 1.446533%)" offset="0.839844"/><stop stop-opacity="1" stop-color="rgb(85.256958%, 0.637817%, 1.393127%)" offset="0.847656"/><stop stop-opacity="1" stop-color="rgb(85.494995%, 0.604248%, 1.341248%)" offset="0.855469"/><stop stop-opacity="1" stop-color="rgb(85.734558%, 0.570679%, 1.289368%)" offset="0.863281"/><stop stop-opacity="1" stop-color="rgb(85.974121%, 0.537109%, 1.235962%)" offset="0.871094"/><stop stop-opacity="1" stop-color="rgb(86.271667%, 0.494385%, 1.170349%)" offset="0.878906"/><stop stop-opacity="1" stop-color="rgb(86.630249%, 0.444031%, 1.092529%)" offset="0.890625"/><stop stop-opacity="1" stop-color="rgb(86.988831%, 0.393677%, 1.013184%)" offset="0.902344"/><stop stop-opacity="1" stop-color="rgb(87.287903%, 0.352478%, 0.949097%)" offset="0.914062"/><stop stop-opacity="1" stop-color="rgb(87.527466%, 0.318909%, 0.895691%)" offset="0.921875"/><stop stop-opacity="1" stop-color="rgb(87.767029%, 0.285339%, 0.843811%)" offset="0.929688"/><stop stop-opacity="1" stop-color="rgb(88.005066%, 0.25177%, 0.791931%)" offset="0.9375"/><stop stop-opacity="1" stop-color="rgb(88.304138%, 0.209045%, 0.726318%)" offset="0.945312"/><stop stop-opacity="1" stop-color="rgb(88.60321%, 0.167847%, 0.660706%)" offset="0.957031"/><stop stop-opacity="1" stop-color="rgb(88.842773%, 0.134277%, 0.608826%)" offset="0.964844"/><stop stop-opacity="1" stop-color="rgb(89.14032%, 0.0915527%, 0.543213%)" offset="0.972656"/><stop stop-opacity="1" stop-color="rgb(89.439392%, 0.050354%, 0.4776%)" offset="0.984375"/><stop stop-opacity="1" stop-color="rgb(89.678955%, 0.0167847%, 0.42572%)" offset="0.992188"/><stop stop-opacity="1" stop-color="rgb(89.7995%, 0%, 0.39978%)" offset="1"/></radialGradient><clipPath id="52941597e0"><path d="M 123 10 L 132.820312 10 L 132.820312 21 L 123 21 Z M 123 10 " clip-rule="nonzero"/></clipPath></defs><g clip-path="url(#9cbb35db78)"><g clip-path="url(#ff5fea1573)"><path fill="url(#735c24d8c3)" d="M 8.378906 37.621094 L 34.355469 20.277344 L 16.121094 -7.578125 L -9.855469 9.765625 Z M 8.378906 37.621094 " fill-rule="nonzero"/></g></g><path fill="#c50001" d="M 28.878906 6.371094 L 40.339844 6.371094 L 40.339844 9.925781 L 36.480469 9.925781 L 36.480469 20.984375 L 32.726562 20.984375 L 32.726562 9.925781 L 28.878906 9.925781 Z M 28.878906 6.371094 " fill-opacity="1" fill-rule="nonzero"/><path fill="#c50001" d="M 49.816406 16.804688 L 43.199219 16.804688 C 43.25 17.207031 43.476562 17.570312 43.882812 17.894531 C 44.292969 18.214844 44.820312 18.375 45.464844 18.375 C 45.871094 18.375 46.253906 18.289062 46.613281 18.121094 C 46.980469 17.945312 47.246094 17.769531 47.40625 17.601562 L 47.644531 17.335938 L 49.121094 19.628906 C 49.085938 19.667969 49.027344 19.726562 48.949219 19.800781 C 48.871094 19.871094 48.703125 19.996094 48.4375 20.179688 C 48.171875 20.355469 47.894531 20.515625 47.597656 20.65625 C 47.308594 20.792969 46.933594 20.917969 46.46875 21.023438 C 46.011719 21.132812 45.546875 21.1875 45.070312 21.1875 C 43.550781 21.1875 42.28125 20.671875 41.257812 19.640625 C 40.242188 18.597656 39.734375 17.34375 39.734375 15.867188 C 39.734375 14.40625 40.234375 13.15625 41.238281 12.117188 C 42.242188 11.070312 43.453125 10.546875 44.878906 10.546875 C 46.296875 10.546875 47.492188 11.046875 48.457031 12.046875 C 49.429688 13.039062 49.914062 14.246094 49.914062 15.664062 Z M 45.96875 13.675781 C 45.675781 13.398438 45.3125 13.257812 44.878906 13.257812 C 44.4375 13.257812 44.074219 13.394531 43.785156 13.667969 C 43.496094 13.9375 43.300781 14.292969 43.199219 14.726562 L 46.554688 14.726562 C 46.453125 14.296875 46.257812 13.949219 45.96875 13.675781 Z M 45.96875 13.675781 " fill-opacity="1" fill-rule="nonzero"/><path fill="#c50001" d="M 55.347656 18.058594 L 53.667969 20.984375 L 50.117188 20.984375 L 53.175781 15.765625 L 50.308594 10.753906 L 53.96875 10.753906 L 55.347656 13.472656 L 56.738281 10.753906 L 60.394531 10.753906 L 57.527344 15.765625 L 60.585938 20.984375 L 57.035156 20.984375 Z M 55.347656 18.058594 " fill-opacity="1" fill-rule="nonzero"/><path fill="#010810" d="M 70.191406 17.4375 L 66.339844 12.320312 L 66.339844 20.984375 L 62.585938 20.984375 L 62.585938 6.371094 L 65.945312 6.371094 L 70.191406 12.117188 L 74.445312 6.371094 L 77.804688 6.371094 L 77.804688 20.984375 L 74.050781 20.984375 L 74.050781 12.320312 Z M 70.191406 17.4375 " fill-opacity="1" fill-rule="nonzero"/><path fill="#010810" d="M 88.5625 20.984375 L 85.207031 20.984375 L 85.207031 19.832031 C 85.140625 19.925781 85.042969 20.054688 84.90625 20.210938 C 84.777344 20.367188 84.492188 20.570312 84.046875 20.820312 C 83.609375 21.066406 83.140625 21.1875 82.636719 21.1875 C 81.71875 21.1875 80.960938 20.90625 80.359375 20.34375 C 79.769531 19.769531 79.472656 19.082031 79.472656 18.273438 C 79.472656 17.4375 79.730469 16.742188 80.246094 16.183594 C 80.761719 15.628906 81.488281 15.242188 82.4375 15.03125 L 85.207031 14.410156 C 85.207031 14.132812 85.085938 13.886719 84.847656 13.675781 C 84.609375 13.464844 84.269531 13.359375 83.824219 13.359375 C 83.445312 13.359375 83.078125 13.449219 82.726562 13.625 C 82.378906 13.800781 82.128906 13.972656 81.980469 14.136719 L 81.75 14.410156 L 80.070312 12.535156 C 80.109375 12.480469 80.160156 12.410156 80.226562 12.320312 C 80.289062 12.226562 80.449219 12.066406 80.699219 11.84375 C 80.949219 11.617188 81.21875 11.421875 81.507812 11.25 C 81.800781 11.074219 82.179688 10.914062 82.648438 10.773438 C 83.117188 10.621094 83.605469 10.546875 84.113281 10.546875 C 85.40625 10.546875 86.472656 10.949219 87.308594 11.75 C 88.144531 12.550781 88.5625 13.515625 88.5625 14.636719 Z M 83.730469 18.476562 C 84.132812 18.476562 84.480469 18.3125 84.769531 17.976562 C 85.058594 17.644531 85.207031 17.21875 85.207031 16.703125 L 85.207031 16.386719 L 83.730469 16.703125 C 83.476562 16.757812 83.265625 16.878906 83.09375 17.058594 C 82.917969 17.242188 82.832031 17.4375 82.832031 17.640625 C 82.839844 18.199219 83.136719 18.476562 83.730469 18.476562 Z M 83.730469 18.476562 " fill-opacity="1" fill-rule="nonzero"/><path fill="#010810" d="M 94.460938 14.320312 C 94.085938 14.742188 93.898438 15.257812 93.898438 15.867188 C 93.898438 16.480469 94.085938 17 94.460938 17.425781 C 94.839844 17.847656 95.277344 18.058594 95.773438 18.058594 C 96.273438 18.058594 96.710938 17.847656 97.085938 17.425781 C 97.464844 17 97.652344 16.480469 97.652344 15.867188 C 97.652344 15.257812 97.464844 14.742188 97.085938 14.320312 C 96.710938 13.890625 96.273438 13.675781 95.773438 13.675781 C 95.277344 13.675781 94.839844 13.890625 94.460938 14.320312 Z M 93.898438 19.730469 L 93.898438 25.367188 L 90.542969 25.367188 L 90.542969 10.753906 L 93.898438 10.753906 L 93.898438 12.003906 C 93.925781 11.964844 93.960938 11.914062 94.007812 11.851562 C 94.050781 11.792969 94.15625 11.679688 94.324219 11.515625 C 94.496094 11.347656 94.683594 11.195312 94.882812 11.066406 C 95.082031 10.933594 95.339844 10.8125 95.65625 10.710938 C 95.972656 10.601562 96.308594 10.546875 96.667969 10.546875 C 97.878906 10.546875 98.921875 11.054688 99.796875 12.066406 C 100.671875 13.074219 101.109375 14.34375 101.109375 15.878906 C 101.109375 17.40625 100.671875 18.675781 99.796875 19.679688 C 98.921875 20.683594 97.878906 21.1875 96.667969 21.1875 C 96.117188 21.1875 95.609375 21.070312 95.144531 20.832031 C 94.683594 20.585938 94.355469 20.34375 94.171875 20.109375 Z M 93.898438 19.730469 " fill-opacity="1" fill-rule="nonzero"/><path fill="#010810" d="M 112.667969 10.753906 L 109.109375 15.144531 L 112.765625 20.984375 L 109.109375 20.984375 L 106.839844 17.335938 L 105.953125 18.375 L 105.953125 20.984375 L 102.59375 20.984375 L 102.59375 10.753906 L 105.953125 10.753906 L 105.953125 14.308594 L 108.820312 10.753906 Z M 112.667969 10.753906 " fill-opacity="1" fill-rule="nonzero"/><path fill="#010810" d="M 122.648438 16.804688 L 116.027344 16.804688 C 116.078125 17.207031 116.308594 17.570312 116.710938 17.894531 C 117.125 18.214844 117.652344 18.375 118.296875 18.375 C 118.699219 18.375 119.082031 18.289062 119.441406 18.121094 C 119.808594 17.945312 120.074219 17.769531 120.234375 17.601562 L 120.476562 17.335938 L 121.953125 19.628906 C 121.914062 19.667969 121.855469 19.726562 121.777344 19.800781 C 121.703125 19.871094 121.53125 19.996094 121.265625 20.179688 C 121.003906 20.355469 120.722656 20.515625 120.425781 20.65625 C 120.136719 20.792969 119.761719 20.917969 119.296875 21.023438 C 118.84375 21.132812 118.375 21.1875 117.898438 21.1875 C 116.382812 21.1875 115.109375 20.671875 114.085938 19.640625 C 113.070312 18.597656 112.5625 17.34375 112.5625 15.867188 C 112.5625 14.40625 113.066406 13.15625 114.070312 12.117188 C 115.070312 11.070312 116.285156 10.546875 117.707031 10.546875 C 119.128906 10.546875 120.320312 11.046875 121.285156 12.046875 C 122.257812 13.039062 122.742188 14.246094 122.742188 15.664062 Z M 118.796875 13.675781 C 118.507812 13.398438 118.144531 13.257812 117.707031 13.257812 C 117.269531 13.257812 116.90625 13.394531 116.617188 13.667969 C 116.328125 13.9375 116.128906 14.292969 116.027344 14.726562 L 119.386719 14.726562 C 119.28125 14.296875 119.085938 13.949219 118.796875 13.675781 Z M 118.796875 13.675781 " fill-opacity="1" fill-rule="nonzero"/><g clip-path="url(#52941597e0)"><path fill="#010810" d="M 123.234375 14.09375 L 123.234375 10.753906 L 132.335938 10.753906 L 132.335938 14.09375 L 129.46875 14.09375 L 129.46875 20.984375 L 126.101562 20.984375 L 126.101562 14.09375 Z M 123.234375 14.09375 " fill-opacity="1" fill-rule="nonzero"/></g></svg>