<svg width="19" height="17" viewBox="0 0 19 17" fill="none"
    xmlns="http://www.w3.org/2000/svg">
    <path fill-rule="evenodd" clip-rule="evenodd" d="M1.69754 2.51686C2.64208 1.39102 4.03466 0.728516 5.76161 0.728516C7.17714 0.728516 8.33642 1.42933 9.17393 2.38097C10.0027 1.43083 11.152 0.728516 12.5898 0.728516C14.3387 0.728516 15.7354 1.38809 16.6773 2.51986C17.599 3.62736 18.0118 5.09655 18.0118 6.61851C18.0118 9.01879 16.5378 11.1119 14.8704 12.7065C13.1788 14.3244 11.1251 15.5877 9.61085 16.3341C9.3346 16.4702 9.01047 16.4688 8.73537 16.3303C7.22458 15.5696 5.17274 14.3 3.48241 12.6834C1.81758 11.0912 0.341858 9.00572 0.341858 6.61851C0.341858 5.08899 0.77129 3.6209 1.69754 2.51686ZM3.20164 3.77874C2.63749 4.45117 2.30519 5.43724 2.30519 6.61851C2.30519 8.19504 3.30377 9.79584 4.83942 11.2645C6.1967 12.5626 7.84853 13.6359 9.18105 14.3494C10.5087 13.6501 12.1577 12.5843 13.5135 11.2876C15.0472 9.82074 16.0485 8.21166 16.0485 6.61851C16.0485 5.42968 15.7249 4.4447 15.1682 3.77574C14.6317 3.13104 13.8082 2.69185 12.5898 2.69185C11.564 2.69185 10.6502 3.4029 10.0496 4.56952C9.88134 4.89637 9.54453 5.10181 9.1769 5.10183C8.80926 5.10185 8.47243 4.89645 8.30412 4.56961C7.70606 3.40832 6.76297 2.69185 5.76161 2.69185C4.57395 2.69185 3.74748 3.12811 3.20164 3.77874Z" fill="#222222"/>
</svg>
